<?xml version="1.0" encoding="UTF-8"?>
<svg xmlns="http://www.w3.org/2000/svg" xmlns:xlink="http://www.w3.org/1999/xlink" width="1727.78pt" height="1727pt" viewBox="0 0 1727.78 1727" version="1.1">
<g id="surface1">
<path style=" stroke:none;fill-rule:evenodd;fill:rgb(0%,49.804688%,100%);fill-opacity:1;" d="M 132.59375 483.859375 C 130.929688 483.71875 129.257813 483.660156 127.585938 483.660156 C 93.035156 483.660156 65.023438 511.671875 65.023438 546.21875 C 65.023438 562.859375 71.65625 578.820313 83.449219 590.558594 C 50.457031 592.589844 24.742188 619.949219 24.742188 653 C 24.742188 674.570313 35.851563 694.621094 54.136719 706.050781 C 24.515625 711.570313 3.035156 737.421875 3.035156 767.554688 C 3.035156 791.410156 16.601563 813.191406 38.015625 823.710938 C 15.039063 833.578125 0.144531 856.183594 0.144531 881.195313 C 0.144531 907.355469 16.417969 930.753906 40.945313 939.851563 C 19.285156 950.273438 5.511719 972.1875 5.511719 996.226563 C 5.511719 1027.234375 28.226563 1053.566406 58.902344 1058.113281 C 42.636719 1069.878906 33.007813 1088.730469 33.007813 1108.804688 C 33.007813 1142.613281 59.867188 1170.304688 93.660156 1171.335938 C 83.824219 1182.707031 78.410156 1197.238281 78.410156 1212.269531 C 78.410156 1246.824219 106.421875 1274.832031 140.972656 1274.832031 C 141.558594 1274.832031 142.140625 1274.824219 142.726563 1274.808594 C 125.734375 1304.894531 136.347656 1343.058594 166.433594 1360.050781 C 175.820313 1365.351563 186.421875 1368.136719 197.199219 1368.136719 C 201.003906 1368.136719 204.800781 1367.789063 208.542969 1367.101563 C 203.703125 1376.164063 201.175781 1386.28125 201.175781 1396.558594 C 201.175781 1431.109375 229.183594 1459.121094 263.738281 1459.121094 C 272.914063 1459.121094 281.980469 1457.101563 290.292969 1453.203125 C 287.824219 1460.023438 286.566406 1467.222656 286.566406 1474.476563 C 286.566406 1509.03125 314.574219 1537.039063 349.128906 1537.039063 C 359.769531 1537.039063 370.234375 1534.324219 379.535156 1529.152344 C 372.066406 1568.066406 402.027344 1603.507813 440.976563 1603.507813 C 455.632813 1603.507813 469.820313 1598.363281 481.070313 1588.96875 C 480.085938 1624.230469 508.410156 1653.28125 543.609375 1653.28125 C 560.496094 1653.28125 576.664063 1646.457031 588.445313 1634.355469 C 592.824219 1665.199219 619.230469 1688.121094 650.382813 1688.121094 C 670.503906 1688.121094 689.398438 1678.441406 701.15625 1662.113281 C 706.933594 1691.441406 732.648438 1712.582031 762.535156 1712.582031 C 784.125 1712.582031 804.191406 1701.449219 815.617188 1683.132813 C 823.835938 1709.160156 847.980469 1726.855469 875.277344 1726.855469 C 903.792969 1726.855469 928.703125 1707.570313 935.84375 1679.960938 C 946.75 1700.242188 967.917969 1712.890625 990.945313 1712.890625 C 1021.199219 1712.890625 1047.109375 1691.25 1052.511719 1661.484375 C 1064.300781 1677.460938 1082.980469 1686.890625 1102.839844 1686.890625 C 1138.378906 1686.890625 1166.859375 1657.289063 1165.351563 1621.664063 C 1177.21875 1635.183594 1194.351563 1642.933594 1212.339844 1642.933594 C 1248.199219 1642.933594 1276.839844 1612.804688 1274.808594 1576.839844 C 1285.480469 1584.566406 1298.320313 1588.730469 1311.5 1588.730469 C 1352.011719 1588.730469 1382.550781 1550.441406 1372.011719 1510.28125 C 1380.929688 1514.921875 1390.828125 1517.34375 1400.890625 1517.34375 C 1435.441406 1517.34375 1463.449219 1489.335938 1463.449219 1454.78125 C 1463.449219 1446.992188 1461.988281 1439.269531 1459.160156 1432.011719 C 1466.03125 1434.523438 1473.289063 1435.804688 1480.609375 1435.804688 C 1515.160156 1435.804688 1543.171875 1407.796875 1543.171875 1373.242188 C 1543.171875 1362.578125 1540.449219 1352.09375 1535.25 1342.777344 C 1575.660156 1354.023438 1614.589844 1323.363281 1614.589844 1282.507813 C 1614.589844 1268.753906 1610.058594 1255.382813 1601.691406 1244.460938 C 1635.910156 1244.003906 1663.421875 1216.132813 1663.421875 1181.90625 C 1663.421875 1167.011719 1658.109375 1152.609375 1648.441406 1141.28125 C 1679.710938 1137.335938 1703.171875 1110.734375 1703.171875 1079.210938 C 1703.171875 1060.152344 1694.480469 1042.132813 1679.570313 1030.261719 C 1707.75 1023.550781 1727.628906 998.371094 1727.628906 969.402344 C 1727.628906 945.34375 1713.839844 923.417969 1692.148438 913.003906 C 1713.761719 902.5625 1727.488281 880.675781 1727.488281 856.675781 C 1727.488281 831.539063 1712.441406 808.847656 1689.289063 799.054688 C 1709.140625 788.015625 1721.441406 767.089844 1721.441406 744.382813 C 1721.441406 714.320313 1700.058594 688.511719 1670.519531 682.910156 C 1686.46875 671.121094 1695.878906 652.460938 1695.878906 632.621094 C 1695.878906 599.828125 1670.570313 572.609375 1637.871094 570.21875 C 1647.910156 558.800781 1653.449219 544.109375 1653.449219 528.898438 C 1653.449219 492.789063 1622.921875 464.039063 1586.691406 466.480469 C 1596.320313 455.171875 1601.601563 440.800781 1601.601563 425.941406 C 1601.601563 386.449219 1565.191406 356.289063 1525.820313 364.789063 C 1530.320313 355.980469 1532.671875 346.230469 1532.671875 336.339844 C 1532.671875 301.78125 1504.660156 273.769531 1470.109375 273.769531 C 1462.03125 273.769531 1454.03125 275.339844 1446.539063 278.378906 C 1449.429688 271.058594 1450.921875 263.269531 1450.921875 255.398438 C 1450.921875 220.851563 1422.910156 192.839844 1388.359375 192.839844 C 1378.421875 192.839844 1368.621094 195.210938 1359.78125 199.75 C 1368.011719 160.5 1337.898438 124.339844 1298.550781 124.339844 C 1283.910156 124.339844 1269.730469 129.480469 1258.488281 138.851563 C 1262.351563 101.769531 1233.210938 69.808594 1196.261719 69.808594 C 1178.140625 69.808594 1160.898438 77.671875 1149.019531 91.359375 C 1147.410156 58.019531 1119.910156 31.808594 1086.53125 31.808594 C 1065.160156 31.808594 1045.261719 42.71875 1033.78125 60.738281 C 1028.601563 30.738281 1002.570313 8.820313 972.125 8.820313 C 948.335938 8.820313 926.605469 22.320313 916.054688 43.640625 C 907.761719 17.730469 883.671875 0.140625 856.46875 0.140625 C 830.582031 0.140625 807.371094 16.078125 798.078125 40.238281 C 786.878906 20.96875 766.273438 9.109375 743.984375 9.109375 C 713.316406 9.109375 687.167969 31.339844 682.234375 61.609375 C 670.433594 45.71875 651.800781 36.339844 632 36.339844 C 598.097656 36.339844 570.363281 63.339844 569.460938 97.238281 C 557.578125 83.640625 540.402344 75.839844 522.347656 75.839844 C 483.660156 75.839844 453.804688 110.808594 460.777344 149.5 C 449.496094 139.988281 435.21875 134.78125 420.46875 134.78125 C 379.613281 134.78125 348.949219 173.710938 360.195313 214.121094 C 350.398438 208.160156 339.15625 205.011719 327.6875 205.011719 C 293.136719 205.011719 265.125 233.019531 265.125 267.570313 C 265.125 276.480469 267.027344 285.289063 270.710938 293.410156 C 263.761719 290.839844 256.410156 289.519531 249.003906 289.519531 C 214.449219 289.519531 186.441406 317.53125 186.441406 352.089844 C 186.441406 362.191406 188.890625 372.148438 193.578125 381.109375 C 153.8125 371.621094 116.492188 401.96875 116.492188 441.960938 C 116.492188 457.441406 122.230469 472.359375 132.59375 483.859375 Z M 142.308594 653 C 142.308594 622.621094 117.679688 598 87.304688 598 C 56.925781 598 32.300781 622.621094 32.300781 653 C 32.300781 683.378906 56.925781 708 87.304688 708 C 117.679688 708 142.308594 683.378906 142.308594 653 Z M 101.777344 678.230469 L 113.875 671.578125 C 115.617188 670.621094 117.808594 671.261719 118.765625 673 C 119.722656 674.738281 119.085938 676.929688 117.34375 677.890625 C 117.292969 677.921875 105.191406 684.570313 105.160156 684.589844 C 93.898438 690.550781 81.554688 692.429688 69.1875 687.511719 C 64.335938 685.628906 60.183594 682.300781 57.308594 677.980469 C 55.277344 674.96875 53.515625 671.371094 52.460938 667.890625 C 50.125 660.070313 49.117188 651.910156 49.488281 643.75 C 49.578125 641.769531 51.261719 640.230469 53.246094 640.320313 C 55.234375 640.410156 56.769531 642.089844 56.679688 644.078125 C 56.347656 651.421875 57.25 658.761719 59.351563 665.789063 C 61.398438 672.300781 65.210938 678.191406 71.816406 680.800781 C 77.964844 683.261719 84.722656 683.769531 91.171875 682.261719 C 94.851563 681.339844 98.414063 679.988281 101.777344 678.230469 Z M 598.613281 1590.722656 C 598.613281 1560.34375 573.988281 1535.71875 543.609375 1535.71875 C 513.230469 1535.71875 488.605469 1560.34375 488.605469 1590.722656 C 488.605469 1621.097656 513.230469 1645.722656 543.609375 1645.722656 C 573.988281 1645.722656 598.613281 1621.097656 598.613281 1590.722656 Z M 558.082031 1615.949219 L 570.179688 1609.300781 C 571.921875 1608.339844 574.113281 1608.976563 575.070313 1610.71875 C 576.027344 1612.460938 575.390625 1614.652344 573.648438 1615.609375 C 573.597656 1615.636719 561.496094 1622.289063 561.46875 1622.304688 C 550.203125 1628.269531 537.859375 1630.152344 525.492188 1625.222656 C 520.640625 1623.351563 516.488281 1620.023438 513.613281 1615.699219 C 511.585938 1612.683594 509.820313 1609.089844 508.769531 1605.605469 C 506.429688 1597.785156 505.425781 1589.628906 505.792969 1581.472656 C 505.882813 1579.484375 507.566406 1577.949219 509.550781 1578.039063 C 511.539063 1578.128906 513.074219 1579.8125 512.984375 1581.796875 C 512.652344 1589.132813 513.558594 1596.472656 515.65625 1603.511719 C 517.703125 1610.019531 521.515625 1615.90625 528.121094 1618.519531 C 534.273438 1620.976563 541.027344 1621.484375 547.476563 1619.980469 C 551.15625 1619.058594 554.71875 1617.703125 558.082031 1615.949219 Z M 930.277344 1664.292969 C 930.277344 1633.917969 905.652344 1609.289063 875.277344 1609.289063 C 844.898438 1609.289063 820.273438 1633.917969 820.273438 1664.292969 C 820.273438 1694.671875 844.898438 1719.296875 875.277344 1719.296875 C 905.652344 1719.296875 930.277344 1694.671875 930.277344 1664.292969 Z M 889.75 1689.523438 L 901.847656 1682.871094 C 903.589844 1681.914063 905.777344 1682.550781 906.734375 1684.292969 C 907.695313 1686.035156 907.058594 1688.222656 905.316406 1689.179688 C 905.265625 1689.210938 893.164063 1695.863281 893.132813 1695.878906 C 881.871094 1701.84375 869.527344 1703.726563 857.160156 1698.796875 C 852.308594 1696.925781 848.152344 1693.59375 845.28125 1689.273438 C 843.25 1686.257813 841.488281 1682.664063 840.433594 1679.179688 C 838.097656 1671.359375 837.089844 1663.199219 837.460938 1655.046875 C 837.550781 1653.058594 839.230469 1651.523438 841.21875 1651.613281 C 843.203125 1651.703125 844.742188 1653.386719 844.652344 1655.371094 C 844.320313 1662.707031 845.222656 1670.046875 847.320313 1677.085938 C 849.367188 1683.59375 853.183594 1689.480469 859.789063 1692.09375 C 865.9375 1694.550781 872.695313 1695.058594 879.144531 1693.550781 C 882.824219 1692.628906 886.382813 1691.277344 889.75 1689.523438 Z M 1655.859375 1181.90625 C 1655.859375 1151.527344 1631.230469 1126.902344 1600.859375 1126.902344 C 1570.480469 1126.902344 1545.851563 1151.527344 1545.851563 1181.90625 C 1545.851563 1212.28125 1570.480469 1236.90625 1600.859375 1236.90625 C 1631.230469 1236.90625 1655.859375 1212.28125 1655.859375 1181.90625 Z M 1615.328125 1207.132813 L 1627.429688 1200.484375 C 1629.171875 1199.527344 1631.359375 1200.160156 1632.320313 1201.902344 C 1633.269531 1203.644531 1632.640625 1205.835938 1630.898438 1206.792969 C 1630.851563 1206.820313 1618.738281 1213.472656 1618.710938 1213.488281 C 1607.449219 1219.453125 1595.109375 1221.335938 1582.738281 1216.40625 C 1577.890625 1214.535156 1573.730469 1211.207031 1570.859375 1206.886719 C 1568.828125 1203.867188 1567.070313 1200.277344 1566.011719 1196.792969 C 1563.679688 1188.972656 1562.671875 1180.8125 1563.039063 1172.65625 C 1563.128906 1170.671875 1564.808594 1169.132813 1566.800781 1169.222656 C 1568.789063 1169.3125 1570.320313 1170.996094 1570.230469 1172.980469 C 1569.898438 1180.316406 1570.800781 1187.65625 1572.898438 1194.695313 C 1574.949219 1201.203125 1578.761719 1207.09375 1585.371094 1209.703125 C 1591.519531 1212.160156 1598.269531 1212.671875 1604.71875 1211.164063 C 1608.398438 1210.242188 1611.960938 1208.890625 1615.328125 1207.132813 Z M 1594.039063 425.941406 C 1594.039063 395.570313 1569.421875 370.941406 1539.039063 370.941406 C 1508.660156 370.941406 1484.039063 395.570313 1484.039063 425.941406 C 1484.039063 456.320313 1508.660156 480.949219 1539.039063 480.949219 C 1569.421875 480.949219 1594.039063 456.320313 1594.039063 425.941406 Z M 1553.511719 451.171875 L 1565.609375 444.519531 C 1567.351563 443.558594 1569.539063 444.199219 1570.5 445.941406 C 1571.460938 447.691406 1570.820313 449.871094 1569.078125 450.828125 C 1569.03125 450.859375 1556.929688 457.511719 1556.898438 457.53125 C 1545.628906 463.488281 1533.289063 465.378906 1520.921875 460.449219 C 1516.070313 458.578125 1511.921875 455.25 1509.039063 450.921875 C 1507.011719 447.910156 1505.25 444.308594 1504.199219 440.828125 C 1501.859375 433.011719 1500.851563 424.851563 1501.21875 416.699219 C 1501.308594 414.710938 1503 413.171875 1504.980469 413.261719 C 1506.96875 413.351563 1508.511719 415.039063 1508.421875 417.019531 C 1508.078125 424.359375 1508.988281 431.699219 1511.078125 438.730469 C 1513.128906 445.238281 1516.949219 451.128906 1523.550781 453.738281 C 1529.699219 456.199219 1536.460938 456.710938 1542.910156 455.199219 C 1546.589844 454.28125 1550.148438 452.929688 1553.511719 451.171875 Z M 1719.929688 856.675781 C 1719.929688 826.300781 1695.300781 801.675781 1664.921875 801.675781 C 1634.550781 801.675781 1609.921875 826.300781 1609.921875 856.675781 C 1609.921875 887.054688 1634.550781 911.679688 1664.921875 911.679688 C 1695.300781 911.679688 1719.929688 887.054688 1719.929688 856.675781 Z M 1679.398438 881.90625 L 1691.488281 875.253906 C 1693.238281 874.296875 1695.429688 874.933594 1696.378906 876.675781 C 1697.339844 878.417969 1696.710938 880.605469 1694.960938 881.566406 C 1694.910156 881.59375 1682.808594 888.246094 1682.78125 888.261719 C 1671.519531 894.226563 1659.171875 896.109375 1646.808594 891.179688 C 1641.949219 889.308594 1637.800781 885.980469 1634.929688 881.65625 C 1632.898438 878.640625 1631.128906 875.046875 1630.078125 871.5625 C 1627.738281 863.742188 1626.738281 855.585938 1627.109375 847.429688 C 1627.199219 845.441406 1628.878906 843.90625 1630.871094 843.996094 C 1632.851563 844.085938 1634.390625 845.769531 1634.300781 847.753906 C 1633.96875 855.089844 1634.871094 862.429688 1636.96875 869.46875 C 1639.019531 875.976563 1642.828125 881.863281 1649.429688 884.476563 C 1655.589844 886.933594 1662.339844 887.441406 1668.789063 885.9375 C 1672.46875 885.015625 1676.03125 883.660156 1679.398438 881.90625 Z M 1688.320313 632.621094 C 1688.320313 602.238281 1663.691406 577.621094 1633.308594 577.621094 C 1602.941406 577.621094 1578.308594 602.238281 1578.308594 632.621094 C 1578.308594 663 1602.941406 687.621094 1633.308594 687.621094 C 1663.691406 687.621094 1688.320313 663 1688.320313 632.621094 Z M 1647.789063 657.851563 L 1659.890625 651.199219 C 1661.628906 650.238281 1663.820313 650.878906 1664.769531 652.621094 C 1665.730469 654.359375 1665.101563 656.550781 1663.351563 657.511719 C 1663.300781 657.539063 1651.199219 664.191406 1651.171875 664.199219 C 1639.910156 670.171875 1627.558594 672.050781 1615.199219 667.121094 C 1610.339844 665.25 1606.191406 661.921875 1603.320313 657.601563 C 1601.289063 654.578125 1599.53125 650.988281 1598.46875 647.511719 C 1596.128906 639.679688 1595.128906 631.53125 1595.5 623.371094 C 1595.589844 621.378906 1597.269531 619.851563 1599.261719 619.941406 C 1601.238281 620.03125 1602.78125 621.710938 1602.691406 623.699219 C 1602.359375 631.03125 1603.261719 638.371094 1605.359375 645.410156 C 1607.410156 651.921875 1611.21875 657.808594 1617.828125 660.421875 C 1623.980469 662.871094 1630.730469 663.378906 1637.179688 661.878906 C 1640.859375 660.960938 1644.421875 659.601563 1647.789063 657.851563 Z M 1525.109375 336.339844 C 1525.109375 305.960938 1500.480469 281.328125 1470.109375 281.328125 C 1439.730469 281.328125 1415.101563 305.960938 1415.101563 336.339844 C 1415.101563 366.710938 1439.730469 391.339844 1470.109375 391.339844 C 1500.480469 391.339844 1525.109375 366.710938 1525.109375 336.339844 Z M 1484.578125 361.558594 L 1496.679688 354.910156 C 1498.421875 353.960938 1500.609375 354.589844 1501.570313 356.328125 C 1502.53125 358.078125 1501.890625 360.269531 1500.148438 361.21875 C 1500.101563 361.25 1487.988281 367.898438 1487.960938 367.921875 C 1476.699219 373.878906 1464.359375 375.769531 1451.988281 370.839844 C 1447.140625 368.96875 1442.980469 365.640625 1440.109375 361.320313 C 1438.078125 358.300781 1436.320313 354.710938 1435.261719 351.21875 C 1432.929688 343.398438 1431.921875 335.238281 1432.289063 327.089844 C 1432.378906 325.101563 1434.058594 323.558594 1436.050781 323.648438 C 1438.039063 323.738281 1439.570313 325.429688 1439.480469 327.410156 C 1439.148438 334.75 1440.050781 342.089844 1442.148438 349.128906 C 1444.199219 355.640625 1448.011719 361.519531 1454.621094 364.140625 C 1460.769531 366.589844 1467.519531 367.101563 1473.96875 365.589844 C 1477.660156 364.671875 1481.210938 363.320313 1484.578125 361.558594 Z M 1443.359375 255.398438 C 1443.359375 225.019531 1418.730469 200.398438 1388.359375 200.398438 C 1357.980469 200.398438 1333.351563 225.019531 1333.351563 255.398438 C 1333.351563 285.78125 1357.980469 310.398438 1388.359375 310.398438 C 1418.730469 310.398438 1443.359375 285.78125 1443.359375 255.398438 Z M 1402.828125 280.628906 L 1414.929688 273.980469 C 1416.671875 273.019531 1418.859375 273.660156 1419.820313 275.398438 C 1420.769531 277.140625 1420.140625 279.328125 1418.390625 280.289063 C 1418.339844 280.320313 1406.238281 286.96875 1406.210938 286.988281 C 1394.949219 292.949219 1382.609375 294.828125 1370.238281 289.898438 C 1365.390625 288.03125 1361.230469 284.699219 1358.359375 280.378906 C 1356.328125 277.371094 1354.570313 273.769531 1353.511719 270.289063 C 1351.179688 262.46875 1350.171875 254.308594 1350.539063 246.148438 C 1350.628906 244.171875 1352.308594 242.628906 1354.300781 242.71875 C 1356.28125 242.808594 1357.820313 244.488281 1357.730469 246.480469 C 1357.398438 253.808594 1358.300781 261.148438 1360.398438 268.191406 C 1362.449219 274.699219 1366.261719 280.589844 1372.871094 283.199219 C 1379.019531 285.660156 1385.769531 286.171875 1392.21875 284.660156 C 1395.898438 283.738281 1399.460938 282.390625 1402.828125 280.628906 Z M 1251.261719 132.371094 C 1251.261719 102 1226.640625 77.371094 1196.261719 77.371094 C 1165.878906 77.371094 1141.261719 102 1141.261719 132.371094 C 1141.261719 162.75 1165.878906 187.378906 1196.261719 187.378906 C 1226.640625 187.378906 1251.261719 162.75 1251.261719 132.371094 Z M 1210.730469 157.601563 L 1222.828125 150.949219 C 1224.570313 149.988281 1226.761719 150.628906 1227.71875 152.371094 C 1228.679688 154.121094 1228.039063 156.300781 1226.300781 157.261719 C 1226.25 157.289063 1214.148438 163.941406 1214.121094 163.960938 C 1202.851563 169.921875 1190.511719 171.808594 1178.140625 166.878906 C 1173.289063 165.011719 1169.140625 161.679688 1166.261719 157.351563 C 1164.230469 154.339844 1162.46875 150.738281 1161.421875 147.261719 C 1159.078125 139.441406 1158.070313 131.28125 1158.441406 123.128906 C 1158.53125 121.140625 1160.21875 119.601563 1162.199219 119.691406 C 1164.191406 119.78125 1165.730469 121.460938 1165.640625 123.449219 C 1165.300781 130.789063 1166.210938 138.128906 1168.308594 145.160156 C 1170.351563 151.671875 1174.171875 157.558594 1180.769531 160.171875 C 1186.921875 162.628906 1193.679688 163.140625 1200.128906 161.628906 C 1203.808594 160.710938 1207.371094 159.359375 1210.730469 157.601563 Z M 1353.550781 186.898438 C 1353.550781 156.53125 1328.929688 131.898438 1298.550781 131.898438 C 1268.171875 131.898438 1243.550781 156.53125 1243.550781 186.898438 C 1243.550781 217.28125 1268.171875 241.910156 1298.550781 241.910156 C 1328.929688 241.910156 1353.550781 217.28125 1353.550781 186.898438 Z M 1313.019531 212.128906 L 1325.121094 205.480469 C 1326.859375 204.519531 1329.050781 205.160156 1330.011719 206.898438 C 1330.96875 208.640625 1330.328125 210.828125 1328.589844 211.789063 C 1328.539063 211.820313 1316.441406 218.46875 1316.410156 218.488281 C 1305.148438 224.449219 1292.800781 226.339844 1280.429688 221.410156 C 1275.578125 219.539063 1271.429688 216.210938 1268.558594 211.878906 C 1266.53125 208.871094 1264.761719 205.269531 1263.710938 201.789063 C 1261.371094 193.96875 1260.371094 185.808594 1260.730469 177.648438 C 1260.820313 175.671875 1262.511719 174.128906 1264.488281 174.21875 C 1266.480469 174.308594 1268.019531 175.988281 1267.929688 177.980469 C 1267.601563 185.320313 1268.5 192.660156 1270.601563 199.691406 C 1272.640625 206.199219 1276.460938 212.089844 1283.058594 214.699219 C 1289.210938 217.160156 1295.96875 217.671875 1302.421875 216.160156 C 1306.101563 215.238281 1309.660156 213.890625 1313.019531 212.128906 Z M 495.980469 1540.945313 C 495.980469 1510.566406 471.351563 1485.941406 440.976563 1485.941406 C 410.597656 1485.941406 385.972656 1510.566406 385.972656 1540.945313 C 385.972656 1571.320313 410.597656 1595.945313 440.976563 1595.945313 C 471.351563 1595.945313 495.980469 1571.320313 495.980469 1540.945313 Z M 455.449219 1566.171875 L 467.546875 1559.523438 C 469.289063 1558.566406 471.480469 1559.199219 472.4375 1560.941406 C 473.394531 1562.6875 472.757813 1564.875 471.015625 1565.832031 C 470.964844 1565.859375 458.863281 1572.511719 458.835938 1572.527344 C 447.570313 1578.492188 435.226563 1580.378906 422.859375 1575.445313 C 418.007813 1573.578125 413.855469 1570.246094 410.980469 1565.925781 C 408.949219 1562.90625 407.1875 1559.316406 406.132813 1555.832031 C 403.796875 1548.011719 402.789063 1539.851563 403.160156 1531.695313 C 403.25 1529.710938 404.933594 1528.171875 406.917969 1528.261719 C 408.90625 1528.351563 410.441406 1530.035156 410.351563 1532.019531 C 410.019531 1539.355469 410.921875 1546.695313 413.023438 1553.734375 C 415.070313 1560.242188 418.882813 1566.132813 425.488281 1568.742188 C 431.636719 1571.199219 438.394531 1571.710938 444.84375 1570.203125 C 448.523438 1569.28125 452.085938 1567.929688 455.449219 1566.171875 Z M 817.539063 1650.019531 C 817.539063 1619.640625 792.914063 1595.015625 762.535156 1595.015625 C 732.160156 1595.015625 707.535156 1619.640625 707.535156 1650.019531 C 707.535156 1680.394531 732.160156 1705.023438 762.535156 1705.023438 C 792.914063 1705.023438 817.539063 1680.394531 817.539063 1650.019531 Z M 777.011719 1675.246094 L 789.109375 1668.597656 C 790.851563 1667.640625 793.039063 1668.277344 793.996094 1670.019531 C 794.953125 1671.761719 794.320313 1673.949219 792.578125 1674.90625 C 792.523438 1674.933594 780.425781 1681.585938 780.394531 1681.601563 C 769.132813 1687.566406 756.789063 1689.453125 744.421875 1684.523438 C 739.566406 1682.652344 735.414063 1679.320313 732.539063 1675 C 730.511719 1671.984375 728.746094 1668.390625 727.695313 1664.90625 C 725.355469 1657.085938 724.351563 1648.925781 724.722656 1640.769531 C 724.8125 1638.785156 726.492188 1637.246094 728.480469 1637.335938 C 730.464844 1637.425781 732.003906 1639.109375 731.914063 1641.097656 C 731.582031 1648.433594 732.484375 1655.773438 734.582031 1662.808594 C 736.628906 1669.320313 740.445313 1675.207031 747.046875 1677.820313 C 753.199219 1680.273438 759.953125 1680.785156 766.402344 1679.277344 C 770.085938 1678.355469 773.644531 1677.003906 777.011719 1675.246094 Z M 1455.890625 1454.78125 C 1455.890625 1424.40625 1431.261719 1399.78125 1400.890625 1399.78125 C 1370.511719 1399.78125 1345.878906 1424.40625 1345.878906 1454.78125 C 1345.878906 1485.160156 1370.511719 1509.785156 1400.890625 1509.785156 C 1431.261719 1509.785156 1455.890625 1485.160156 1455.890625 1454.78125 Z M 1415.359375 1480.011719 L 1427.460938 1473.359375 C 1429.199219 1472.402344 1431.390625 1473.039063 1432.351563 1474.78125 C 1433.300781 1476.523438 1432.671875 1478.714844 1430.929688 1479.671875 C 1430.871094 1479.699219 1418.769531 1486.351563 1418.738281 1486.367188 C 1407.480469 1492.332031 1395.140625 1494.214844 1382.769531 1489.285156 C 1377.921875 1487.414063 1373.761719 1484.085938 1370.890625 1479.761719 C 1368.859375 1476.746094 1367.101563 1473.152344 1366.039063 1469.671875 C 1363.710938 1461.847656 1362.699219 1453.6875 1363.070313 1445.535156 C 1363.160156 1443.546875 1364.839844 1442.011719 1366.828125 1442.101563 C 1368.808594 1442.191406 1370.351563 1443.871094 1370.261719 1445.859375 C 1369.929688 1453.195313 1370.828125 1460.535156 1372.929688 1467.574219 C 1374.980469 1474.082031 1378.789063 1479.96875 1385.398438 1482.582031 C 1391.550781 1485.039063 1398.300781 1485.546875 1404.75 1484.039063 C 1408.429688 1483.117188 1411.988281 1481.765625 1415.359375 1480.011719 Z M 1535.609375 1373.242188 C 1535.609375 1342.867188 1510.988281 1318.242188 1480.609375 1318.242188 C 1450.230469 1318.242188 1425.609375 1342.867188 1425.609375 1373.242188 C 1425.609375 1403.621094 1450.230469 1428.246094 1480.609375 1428.246094 C 1510.988281 1428.246094 1535.609375 1403.621094 1535.609375 1373.242188 Z M 1495.078125 1398.472656 L 1507.179688 1391.820313 C 1508.921875 1390.863281 1511.109375 1391.5 1512.070313 1393.242188 C 1513.03125 1394.984375 1512.390625 1397.171875 1510.648438 1398.132813 C 1510.601563 1398.160156 1498.5 1404.8125 1498.46875 1404.828125 C 1487.199219 1410.789063 1474.859375 1412.675781 1462.488281 1407.746094 C 1457.640625 1405.875 1453.488281 1402.546875 1450.609375 1398.222656 C 1448.578125 1395.207031 1446.820313 1391.613281 1445.769531 1388.128906 C 1443.429688 1380.308594 1442.421875 1372.148438 1442.789063 1363.996094 C 1442.878906 1362.007813 1444.570313 1360.472656 1446.550781 1360.5625 C 1448.539063 1360.652344 1450.078125 1362.335938 1449.988281 1364.320313 C 1449.648438 1371.65625 1450.558594 1378.996094 1452.660156 1386.035156 C 1454.699219 1392.542969 1458.519531 1398.429688 1465.121094 1401.042969 C 1471.269531 1403.496094 1478.03125 1404.007813 1484.480469 1402.503906 C 1488.160156 1401.578125 1491.71875 1400.226563 1495.078125 1398.472656 Z M 150.570313 1108.804688 C 150.570313 1078.425781 125.945313 1053.800781 95.570313 1053.800781 C 65.191406 1053.800781 40.566406 1078.425781 40.566406 1108.804688 C 40.566406 1139.179688 65.191406 1163.804688 95.570313 1163.804688 C 125.945313 1163.804688 150.570313 1139.179688 150.570313 1108.804688 Z M 110.042969 1134.03125 L 122.140625 1127.382813 C 123.882813 1126.425781 126.070313 1127.0625 127.027344 1128.804688 C 127.988281 1130.546875 127.351563 1132.734375 125.609375 1133.691406 C 125.558594 1133.71875 113.457031 1140.371094 113.425781 1140.386719 C 102.164063 1146.351563 89.820313 1148.234375 77.453125 1143.308594 C 72.597656 1141.4375 68.445313 1138.105469 65.574219 1133.785156 C 63.542969 1130.769531 61.78125 1127.175781 60.726563 1123.691406 C 58.390625 1115.871094 57.382813 1107.710938 57.753906 1099.554688 C 57.84375 1097.570313 59.523438 1096.03125 61.511719 1096.121094 C 63.496094 1096.210938 65.035156 1097.894531 64.945313 1099.882813 C 64.613281 1107.21875 65.515625 1114.558594 67.613281 1121.59375 C 69.660156 1128.105469 73.476563 1133.992188 80.082031 1136.605469 C 86.230469 1139.058594 92.984375 1139.570313 99.433594 1138.0625 C 103.117188 1137.140625 106.675781 1135.789063 110.042969 1134.03125 Z M 195.976563 1212.269531 C 195.976563 1181.894531 171.351563 1157.269531 140.972656 1157.269531 C 110.597656 1157.269531 85.96875 1181.894531 85.96875 1212.269531 C 85.96875 1242.648438 110.597656 1267.273438 140.972656 1267.273438 C 171.351563 1267.273438 195.976563 1242.648438 195.976563 1212.269531 Z M 155.445313 1237.5 L 167.542969 1230.851563 C 169.285156 1229.890625 171.476563 1230.527344 172.433594 1232.269531 C 173.390625 1234.011719 172.753906 1236.199219 171.011719 1237.160156 C 170.960938 1237.1875 158.859375 1243.839844 158.832031 1243.855469 C 147.566406 1249.820313 135.222656 1251.703125 122.855469 1246.773438 C 118.003906 1244.902344 113.851563 1241.574219 110.976563 1237.25 C 108.945313 1234.234375 107.183594 1230.640625 106.132813 1227.15625 C 103.792969 1219.335938 102.789063 1211.179688 103.15625 1203.023438 C 103.246094 1201.035156 104.929688 1199.5 106.914063 1199.589844 C 108.902344 1199.679688 110.4375 1201.363281 110.347656 1203.347656 C 110.019531 1210.683594 110.921875 1218.023438 113.019531 1225.0625 C 115.066406 1231.570313 118.878906 1237.457031 125.484375 1240.070313 C 131.636719 1242.527344 138.390625 1243.035156 144.839844 1241.53125 C 148.519531 1240.609375 152.082031 1239.253906 155.445313 1237.5 Z M 1720.070313 969.402344 C 1720.070313 939.027344 1695.449219 914.402344 1665.070313 914.402344 C 1634.691406 914.402344 1610.070313 939.027344 1610.070313 969.402344 C 1610.070313 999.78125 1634.691406 1024.40625 1665.070313 1024.40625 C 1695.449219 1024.40625 1720.070313 999.78125 1720.070313 969.402344 Z M 1679.539063 994.632813 L 1691.640625 987.980469 C 1693.378906 987.023438 1695.570313 987.660156 1696.53125 989.402344 C 1697.488281 991.144531 1696.851563 993.335938 1695.109375 994.292969 C 1695.058594 994.320313 1682.960938 1000.972656 1682.929688 1000.988281 C 1671.671875 1006.953125 1659.320313 1008.835938 1646.960938 1003.90625 C 1642.101563 1002.035156 1637.949219 998.707031 1635.078125 994.382813 C 1633.050781 991.367188 1631.28125 987.773438 1630.230469 984.289063 C 1627.890625 976.46875 1626.890625 968.3125 1627.25 960.15625 C 1627.339844 958.171875 1629.03125 956.632813 1631.011719 956.722656 C 1633 956.8125 1634.539063 958.496094 1634.449219 960.480469 C 1634.121094 967.816406 1635.019531 975.15625 1637.121094 982.195313 C 1639.160156 988.703125 1642.980469 994.589844 1649.578125 997.203125 C 1655.730469 999.660156 1662.488281 1000.167969 1668.941406 998.664063 C 1672.621094 997.742188 1676.179688 996.386719 1679.539063 994.632813 Z M 1713.878906 744.382813 C 1713.878906 714.011719 1689.261719 689.378906 1658.878906 689.378906 C 1628.5 689.378906 1603.878906 714.011719 1603.878906 744.382813 C 1603.878906 774.761719 1628.5 799.386719 1658.878906 799.386719 C 1689.261719 799.386719 1713.878906 774.761719 1713.878906 744.382813 Z M 1673.351563 769.613281 L 1685.449219 762.960938 C 1687.191406 762.003906 1689.378906 762.640625 1690.339844 764.382813 C 1691.300781 766.125 1690.660156 768.3125 1688.921875 769.269531 C 1688.871094 769.300781 1676.769531 775.949219 1676.738281 775.96875 C 1665.46875 781.929688 1653.128906 783.816406 1640.761719 778.886719 C 1635.910156 777.015625 1631.761719 773.683594 1628.878906 769.363281 C 1626.851563 766.347656 1625.089844 762.753906 1624.039063 759.269531 C 1621.699219 751.449219 1620.691406 743.289063 1621.058594 735.136719 C 1621.148438 733.148438 1622.828125 731.613281 1624.820313 731.703125 C 1626.808594 731.789063 1628.339844 733.472656 1628.25 735.460938 C 1627.921875 742.796875 1628.828125 750.136719 1630.921875 757.171875 C 1632.96875 763.683594 1636.789063 769.570313 1643.390625 772.183594 C 1649.539063 774.640625 1656.300781 775.148438 1662.738281 773.640625 C 1666.429688 772.71875 1669.988281 771.367188 1673.351563 769.613281 Z M 1645.890625 528.898438 C 1645.890625 498.519531 1621.269531 473.898438 1590.890625 473.898438 C 1560.519531 473.898438 1535.890625 498.519531 1535.890625 528.898438 C 1535.890625 559.28125 1560.519531 583.898438 1590.890625 583.898438 C 1621.269531 583.898438 1645.890625 559.28125 1645.890625 528.898438 Z M 1605.371094 554.128906 L 1617.460938 547.480469 C 1619.210938 546.519531 1621.390625 547.160156 1622.351563 548.898438 C 1623.308594 550.640625 1622.671875 552.828125 1620.929688 553.789063 C 1620.878906 553.820313 1608.78125 560.46875 1608.75 560.480469 C 1597.488281 566.449219 1585.140625 568.328125 1572.78125 563.398438 C 1567.921875 561.53125 1563.769531 558.199219 1560.898438 553.878906 C 1558.871094 550.859375 1557.101563 547.269531 1556.050781 543.789063 C 1553.710938 535.96875 1552.710938 527.808594 1553.078125 519.648438 C 1553.171875 517.671875 1554.851563 516.128906 1556.839844 516.21875 C 1558.820313 516.308594 1560.359375 517.988281 1560.269531 519.980469 C 1559.941406 527.308594 1560.839844 534.648438 1562.941406 541.691406 C 1564.980469 548.199219 1568.800781 554.089844 1575.398438 556.699219 C 1581.550781 559.160156 1588.308594 559.671875 1594.761719 558.160156 C 1598.441406 557.238281 1602 555.878906 1605.371094 554.128906 Z M 1141.53125 94.378906 C 1141.53125 64 1116.910156 39.371094 1086.53125 39.371094 C 1056.148438 39.371094 1031.53125 64 1031.53125 94.378906 C 1031.53125 124.75 1056.148438 149.378906 1086.53125 149.378906 C 1116.910156 149.378906 1141.53125 124.75 1141.53125 94.378906 Z M 1101 119.601563 L 1113.101563 112.949219 C 1114.839844 112 1117.03125 112.628906 1117.988281 114.371094 C 1118.949219 116.121094 1118.308594 118.308594 1116.570313 119.261719 C 1116.519531 119.289063 1104.421875 125.941406 1104.390625 125.960938 C 1093.121094 131.921875 1080.78125 133.808594 1068.410156 128.878906 C 1063.558594 127.011719 1059.410156 123.679688 1056.53125 119.359375 C 1054.5 116.339844 1052.738281 112.75 1051.691406 109.261719 C 1049.351563 101.441406 1048.339844 93.28125 1048.710938 85.128906 C 1048.800781 83.140625 1050.488281 81.601563 1052.46875 81.691406 C 1054.460938 81.78125 1056 83.46875 1055.910156 85.449219 C 1055.570313 92.789063 1056.480469 100.128906 1058.578125 107.171875 C 1060.621094 113.671875 1064.441406 119.558594 1071.039063 122.179688 C 1077.191406 124.628906 1083.949219 125.140625 1090.398438 123.628906 C 1094.078125 122.710938 1097.640625 121.359375 1101 119.601563 Z M 798.988281 71.671875 C 798.988281 41.300781 774.359375 16.671875 743.984375 16.671875 C 713.605469 16.671875 688.980469 41.300781 688.980469 71.671875 C 688.980469 102.050781 713.605469 126.679688 743.984375 126.679688 C 774.359375 126.679688 798.988281 102.050781 798.988281 71.671875 Z M 758.457031 96.898438 L 770.554688 90.25 C 772.296875 89.300781 774.488281 89.929688 775.445313 91.671875 C 776.402344 93.421875 775.765625 95.609375 774.023438 96.558594 C 773.972656 96.589844 761.871094 103.238281 761.84375 103.261719 C 750.578125 109.21875 738.234375 111.109375 725.867188 106.179688 C 721.015625 104.308594 716.863281 100.980469 713.988281 96.648438 C 711.960938 93.640625 710.195313 90.050781 709.140625 86.558594 C 706.804688 78.738281 705.800781 70.578125 706.167969 62.429688 C 706.257813 60.441406 707.941406 58.898438 709.925781 58.988281 C 711.914063 59.078125 713.449219 60.769531 713.359375 62.75 C 713.027344 70.089844 713.929688 77.429688 716.03125 84.46875 C 718.078125 90.96875 721.890625 96.859375 728.496094 99.46875 C 734.644531 101.929688 741.402344 102.441406 747.851563 100.929688 C 751.53125 100.011719 755.09375 98.660156 758.457031 96.898438 Z M 404.128906 1474.476563 C 404.128906 1444.101563 379.503906 1419.476563 349.128906 1419.476563 C 318.75 1419.476563 294.125 1444.101563 294.125 1474.476563 C 294.125 1504.855469 318.75 1529.480469 349.128906 1529.480469 C 379.503906 1529.480469 404.128906 1504.855469 404.128906 1474.476563 Z M 363.601563 1499.707031 L 375.699219 1493.054688 C 377.441406 1492.097656 379.628906 1492.734375 380.589844 1494.476563 C 381.546875 1496.21875 380.910156 1498.40625 379.167969 1499.367188 C 379.117188 1499.394531 367.015625 1506.046875 366.984375 1506.0625 C 355.722656 1512.027344 343.378906 1513.910156 331.011719 1508.980469 C 326.15625 1507.109375 322.003906 1503.78125 319.132813 1499.457031 C 317.101563 1496.441406 315.339844 1492.847656 314.285156 1489.363281 C 311.949219 1481.542969 310.941406 1473.382813 311.3125 1465.230469 C 311.402344 1463.242188 313.085938 1461.707031 315.070313 1461.796875 C 317.054688 1461.886719 318.59375 1463.570313 318.503906 1465.554688 C 318.171875 1472.890625 319.074219 1480.230469 321.171875 1487.269531 C 323.21875 1493.777344 327.035156 1499.664063 333.640625 1502.277344 C 339.789063 1504.734375 346.546875 1505.242188 352.992188 1503.734375 C 356.675781 1502.8125 360.234375 1501.460938 363.601563 1499.707031 Z M 705.386719 1625.558594 C 705.386719 1595.179688 680.761719 1570.554688 650.382813 1570.554688 C 620.007813 1570.554688 595.382813 1595.179688 595.382813 1625.558594 C 595.382813 1655.933594 620.007813 1680.558594 650.382813 1680.558594 C 680.761719 1680.558594 705.386719 1655.933594 705.386719 1625.558594 Z M 664.859375 1650.785156 L 676.957031 1644.136719 C 678.699219 1643.179688 680.886719 1643.816406 681.84375 1645.554688 C 682.804688 1647.300781 682.164063 1649.488281 680.425781 1650.445313 C 680.371094 1650.472656 668.273438 1657.125 668.242188 1657.140625 C 656.980469 1663.105469 644.636719 1664.988281 632.269531 1660.0625 C 627.414063 1658.191406 623.261719 1654.859375 620.390625 1650.539063 C 618.359375 1647.523438 616.597656 1643.929688 615.542969 1640.445313 C 613.203125 1632.625 612.199219 1624.464844 612.566406 1616.308594 C 612.65625 1614.324219 614.339844 1612.785156 616.328125 1612.875 C 618.3125 1612.964844 619.851563 1614.648438 619.761719 1616.636719 C 619.429688 1623.972656 620.332031 1631.3125 622.429688 1638.347656 C 624.476563 1644.855469 628.289063 1650.746094 634.894531 1653.355469 C 641.046875 1655.8125 647.800781 1656.324219 654.25 1654.816406 C 657.933594 1653.894531 661.492188 1652.542969 664.859375 1650.785156 Z M 1045.949219 1650.328125 C 1045.949219 1619.953125 1021.320313 1595.328125 990.945313 1595.328125 C 960.570313 1595.328125 935.941406 1619.953125 935.941406 1650.328125 C 935.941406 1680.707031 960.570313 1705.332031 990.945313 1705.332031 C 1021.320313 1705.332031 1045.949219 1680.707031 1045.949219 1650.328125 Z M 1005.421875 1675.558594 L 1017.519531 1668.90625 C 1019.261719 1667.949219 1021.449219 1668.585938 1022.410156 1670.328125 C 1023.359375 1672.070313 1022.730469 1674.261719 1020.988281 1675.21875 C 1020.929688 1675.246094 1008.828125 1681.898438 1008.800781 1681.914063 C 997.539063 1687.878906 985.195313 1689.761719 972.828125 1684.832031 C 967.976563 1682.960938 963.824219 1679.632813 960.949219 1675.308594 C 958.921875 1672.292969 957.15625 1668.699219 956.105469 1665.214844 C 953.765625 1657.394531 952.761719 1649.234375 953.128906 1641.082031 C 953.21875 1639.09375 954.902344 1637.558594 956.890625 1637.648438 C 958.875 1637.738281 960.410156 1639.421875 960.320313 1641.40625 C 959.992188 1648.742188 960.894531 1656.082031 962.992188 1663.121094 C 965.039063 1669.628906 968.851563 1675.515625 975.457031 1678.128906 C 981.609375 1680.585938 988.363281 1681.09375 994.8125 1679.589844 C 998.492188 1678.667969 1002.050781 1677.3125 1005.421875 1675.558594 Z M 1366.5 1526.164063 C 1366.5 1495.789063 1341.871094 1471.164063 1311.5 1471.164063 C 1281.121094 1471.164063 1256.488281 1495.789063 1256.488281 1526.164063 C 1256.488281 1556.542969 1281.121094 1581.167969 1311.5 1581.167969 C 1341.871094 1581.167969 1366.5 1556.542969 1366.5 1526.164063 Z M 1325.96875 1551.394531 L 1338.070313 1544.746094 C 1339.808594 1543.785156 1342 1544.421875 1342.960938 1546.164063 C 1343.910156 1547.90625 1343.28125 1550.097656 1341.539063 1551.054688 C 1341.488281 1551.082031 1329.378906 1557.734375 1329.351563 1557.75 C 1318.089844 1563.714844 1305.75 1565.597656 1293.378906 1560.667969 C 1288.53125 1558.800781 1284.378906 1555.46875 1281.5 1551.144531 C 1279.46875 1548.128906 1277.710938 1544.535156 1276.648438 1541.054688 C 1274.320313 1533.230469 1273.308594 1525.074219 1273.679688 1516.917969 C 1273.769531 1514.933594 1275.449219 1513.394531 1277.441406 1513.484375 C 1279.429688 1513.574219 1280.960938 1515.257813 1280.871094 1517.242188 C 1280.539063 1524.578125 1281.441406 1531.917969 1283.539063 1538.957031 C 1285.589844 1545.464844 1289.398438 1551.351563 1296.011719 1553.964844 C 1302.160156 1556.421875 1308.910156 1556.929688 1315.359375 1555.425781 C 1319.039063 1554.503906 1322.609375 1553.148438 1325.96875 1551.394531 Z M 123.074219 996.226563 C 123.074219 965.847656 98.449219 941.222656 68.074219 941.222656 C 37.695313 941.222656 13.070313 965.847656 13.070313 996.226563 C 13.070313 1026.601563 37.695313 1051.230469 68.074219 1051.230469 C 98.449219 1051.230469 123.074219 1026.601563 123.074219 996.226563 Z M 82.546875 1021.453125 L 94.644531 1014.804688 C 96.386719 1013.847656 98.574219 1014.484375 99.53125 1016.226563 C 100.492188 1017.96875 99.855469 1020.15625 98.113281 1021.113281 C 98.0625 1021.140625 85.960938 1027.792969 85.929688 1027.808594 C 74.667969 1033.773438 62.324219 1035.65625 49.957031 1030.730469 C 45.101563 1028.859375 40.949219 1025.527344 38.078125 1021.203125 C 36.046875 1018.191406 34.285156 1014.597656 33.230469 1011.113281 C 30.894531 1003.289063 29.886719 995.132813 30.257813 986.976563 C 30.347656 984.992188 32.027344 983.453125 34.015625 983.542969 C 36 983.632813 37.539063 985.316406 37.449219 987.304688 C 37.117188 994.640625 38.019531 1001.980469 40.117188 1009.015625 C 42.164063 1015.523438 45.980469 1021.414063 52.585938 1024.027344 C 58.734375 1026.480469 65.488281 1026.992188 71.9375 1025.484375 C 75.621094 1024.5625 79.179688 1023.210938 82.546875 1021.453125 Z M 117.710938 881.195313 C 117.710938 850.816406 93.082031 826.191406 62.707031 826.191406 C 32.328125 826.191406 7.703125 850.816406 7.703125 881.195313 C 7.703125 911.570313 32.328125 936.195313 62.707031 936.195313 C 93.082031 936.195313 117.710938 911.570313 117.710938 881.195313 Z M 77.179688 906.421875 L 89.277344 899.773438 C 91.019531 898.816406 93.210938 899.449219 94.167969 901.191406 C 95.125 902.9375 94.488281 905.125 92.746094 906.082031 C 92.695313 906.109375 80.59375 912.761719 80.566406 912.777344 C 69.300781 918.742188 56.957031 920.628906 44.589844 915.699219 C 39.738281 913.828125 35.585938 910.496094 32.710938 906.175781 C 30.679688 903.15625 28.917969 899.566406 27.863281 896.082031 C 25.527344 888.261719 24.523438 880.101563 24.890625 871.945313 C 24.980469 869.960938 26.664063 868.421875 28.648438 868.511719 C 30.636719 868.601563 32.171875 870.285156 32.082031 872.269531 C 31.75 879.609375 32.652344 886.945313 34.753906 893.984375 C 36.796875 900.492188 40.613281 906.382813 47.21875 908.992188 C 53.367188 911.449219 60.125 911.960938 66.574219 910.453125 C 70.253906 909.53125 73.816406 908.179688 77.179688 906.421875 Z M 1695.609375 1079.210938 C 1695.609375 1048.835938 1670.980469 1024.210938 1640.609375 1024.210938 C 1610.230469 1024.210938 1585.601563 1048.835938 1585.601563 1079.210938 C 1585.601563 1109.589844 1610.230469 1134.214844 1640.609375 1134.214844 C 1670.980469 1134.214844 1695.609375 1109.589844 1695.609375 1079.210938 Z M 1655.078125 1104.441406 L 1667.179688 1097.789063 C 1668.921875 1096.832031 1671.109375 1097.46875 1672.070313 1099.210938 C 1673.019531 1100.953125 1672.390625 1103.140625 1670.648438 1104.101563 C 1670.589844 1104.128906 1658.488281 1110.78125 1658.460938 1110.796875 C 1647.199219 1116.761719 1634.859375 1118.644531 1622.488281 1113.714844 C 1617.640625 1111.84375 1613.480469 1108.515625 1610.609375 1104.191406 C 1608.578125 1101.175781 1606.820313 1097.582031 1605.761719 1094.097656 C 1603.429688 1086.277344 1602.421875 1078.117188 1602.789063 1069.964844 C 1602.878906 1067.976563 1604.558594 1066.441406 1606.550781 1066.53125 C 1608.53125 1066.621094 1610.070313 1068.304688 1609.980469 1070.289063 C 1609.648438 1077.625 1610.550781 1084.964844 1612.648438 1092.003906 C 1614.699219 1098.511719 1618.511719 1104.398438 1625.121094 1107.011719 C 1631.269531 1109.46875 1638.019531 1109.976563 1644.46875 1108.472656 C 1648.148438 1107.550781 1651.710938 1106.195313 1655.078125 1104.441406 Z M 1027.128906 71.390625 C 1027.128906 41.011719 1002.5 16.378906 972.125 16.378906 C 941.746094 16.378906 917.121094 41.011719 917.121094 71.390625 C 917.121094 101.761719 941.746094 126.390625 972.125 126.390625 C 1002.5 126.390625 1027.128906 101.761719 1027.128906 71.390625 Z M 986.597656 96.621094 L 998.695313 89.96875 C 1000.441406 89.011719 1002.628906 89.640625 1003.589844 91.390625 C 1004.539063 93.128906 1003.910156 95.320313 1002.160156 96.269531 C 1002.109375 96.300781 990.011719 102.960938 989.984375 102.96875 C 978.71875 108.941406 966.375 110.820313 954.007813 105.890625 C 949.15625 104.019531 945.003906 100.691406 942.128906 96.371094 C 940.101563 93.351563 938.335938 89.761719 937.28125 86.269531 C 934.945313 78.449219 933.941406 70.289063 934.308594 62.140625 C 934.398438 60.148438 936.082031 58.621094 938.066406 58.710938 C 940.054688 58.789063 941.589844 60.480469 941.503906 62.460938 C 941.171875 69.800781 942.070313 77.140625 944.171875 84.179688 C 946.21875 90.691406 950.03125 96.570313 956.636719 99.191406 C 962.785156 101.640625 969.542969 102.148438 975.992188 100.648438 C 979.671875 99.71875 983.234375 98.371094 986.597656 96.621094 Z M 911.46875 62.710938 C 911.46875 32.328125 886.84375 7.699219 856.46875 7.699219 C 826.089844 7.699219 801.464844 32.328125 801.464844 62.710938 C 801.464844 93.078125 826.089844 117.710938 856.46875 117.710938 C 886.84375 117.710938 911.46875 93.078125 911.46875 62.710938 Z M 870.941406 87.941406 L 883.039063 81.28125 C 884.78125 80.328125 886.96875 80.960938 887.925781 82.710938 C 888.886719 84.449219 888.25 86.640625 886.507813 87.589844 C 886.453125 87.621094 874.355469 94.269531 874.324219 94.289063 C 863.0625 100.25 850.71875 102.140625 838.351563 97.210938 C 833.496094 95.339844 829.34375 92.011719 826.472656 87.691406 C 824.441406 84.671875 822.679688 81.078125 821.625 77.589844 C 819.289063 69.769531 818.28125 61.609375 818.652344 53.460938 C 818.742188 51.46875 820.425781 49.929688 822.410156 50.019531 C 824.394531 50.109375 825.933594 51.800781 825.84375 53.78125 C 825.511719 61.121094 826.414063 68.460938 828.511719 75.5 C 830.558594 82.011719 834.375 87.890625 840.980469 90.511719 C 847.128906 92.960938 853.886719 93.46875 860.335938 91.960938 C 864.015625 91.039063 867.574219 89.691406 870.941406 87.941406 Z M 687.003906 98.898438 C 687.003906 68.53125 662.378906 43.898438 632 43.898438 C 601.621094 43.898438 576.996094 68.53125 576.996094 98.898438 C 576.996094 129.28125 601.621094 153.910156 632 153.910156 C 662.378906 153.910156 687.003906 129.28125 687.003906 98.898438 Z M 646.472656 124.128906 L 658.570313 117.480469 C 660.3125 116.519531 662.503906 117.160156 663.460938 118.898438 C 664.417969 120.648438 663.78125 122.828125 662.039063 123.789063 C 661.988281 123.820313 649.886719 130.46875 649.859375 130.488281 C 638.59375 136.449219 626.253906 138.339844 613.882813 133.410156 C 609.03125 131.539063 604.878906 128.210938 602.003906 123.878906 C 599.976563 120.871094 598.210938 117.269531 597.15625 113.789063 C 594.820313 105.96875 593.816406 97.808594 594.183594 89.660156 C 594.273438 87.671875 595.957031 86.128906 597.941406 86.21875 C 599.929688 86.308594 601.464844 87.988281 601.378906 89.980469 C 601.046875 97.320313 601.945313 104.660156 604.046875 111.691406 C 606.09375 118.199219 609.90625 124.089844 616.511719 126.699219 C 622.664063 129.160156 629.417969 129.671875 635.867188 128.160156 C 639.546875 127.238281 643.109375 125.890625 646.472656 124.128906 Z M 577.351563 138.398438 C 577.351563 108.019531 552.722656 83.398438 522.347656 83.398438 C 491.96875 83.398438 467.34375 108.019531 467.34375 138.398438 C 467.34375 168.78125 491.96875 193.398438 522.347656 193.398438 C 552.722656 193.398438 577.351563 168.78125 577.351563 138.398438 Z M 536.820313 163.628906 L 548.917969 156.980469 C 550.660156 156.019531 552.851563 156.660156 553.808594 158.398438 C 554.765625 160.140625 554.128906 162.328125 552.386719 163.289063 C 552.335938 163.320313 540.234375 169.96875 540.203125 169.980469 C 528.941406 175.949219 516.597656 177.828125 504.230469 172.898438 C 499.378906 171.03125 495.226563 167.699219 492.351563 163.378906 C 490.320313 160.359375 488.558594 156.769531 487.503906 153.289063 C 485.167969 145.460938 484.164063 137.308594 484.53125 129.148438 C 484.621094 127.160156 486.304688 125.628906 488.289063 125.71875 C 490.277344 125.808594 491.8125 127.488281 491.722656 129.480469 C 491.390625 136.808594 492.296875 144.148438 494.394531 151.191406 C 496.441406 157.699219 500.253906 163.589844 506.859375 166.199219 C 513.007813 168.648438 519.765625 169.160156 526.214844 167.660156 C 529.894531 166.738281 533.457031 165.378906 536.820313 163.628906 Z M 252.203125 1305.574219 C 252.203125 1275.195313 227.578125 1250.570313 197.199219 1250.570313 C 166.824219 1250.570313 142.199219 1275.195313 142.199219 1305.574219 C 142.199219 1335.949219 166.824219 1360.578125 197.199219 1360.578125 C 227.578125 1360.578125 252.203125 1335.949219 252.203125 1305.574219 Z M 211.675781 1330.804688 L 223.773438 1324.152344 C 225.515625 1323.195313 227.703125 1323.832031 228.660156 1325.574219 C 229.617188 1327.316406 228.980469 1329.503906 227.238281 1330.460938 C 227.1875 1330.492188 215.089844 1337.144531 215.058594 1337.15625 C 203.796875 1343.121094 191.453125 1345.007813 179.085938 1340.078125 C 174.230469 1338.207031 170.078125 1334.878906 167.203125 1330.554688 C 165.175781 1327.539063 163.410156 1323.945313 162.359375 1320.460938 C 160.019531 1312.640625 159.015625 1304.480469 159.382813 1296.324219 C 159.472656 1294.339844 161.15625 1292.804688 163.144531 1292.894531 C 165.128906 1292.980469 166.667969 1294.664063 166.578125 1296.652344 C 166.246094 1303.988281 167.148438 1311.328125 169.246094 1318.363281 C 171.292969 1324.875 175.105469 1330.761719 181.710938 1333.375 C 187.863281 1335.828125 194.617188 1336.339844 201.066406 1334.832031 C 204.746094 1333.910156 208.308594 1332.558594 211.675781 1330.804688 Z M 318.738281 1396.558594 C 318.738281 1366.179688 294.113281 1341.554688 263.738281 1341.554688 C 233.359375 1341.554688 208.734375 1366.179688 208.734375 1396.558594 C 208.734375 1426.933594 233.359375 1451.558594 263.738281 1451.558594 C 294.113281 1451.558594 318.738281 1426.933594 318.738281 1396.558594 Z M 278.210938 1421.785156 L 290.308594 1415.136719 C 292.050781 1414.179688 294.238281 1414.8125 295.195313 1416.554688 C 296.15625 1418.300781 295.519531 1420.488281 293.777344 1421.445313 C 293.726563 1421.472656 281.625 1428.125 281.59375 1428.140625 C 270.332031 1434.105469 257.988281 1435.988281 245.621094 1431.0625 C 240.769531 1429.191406 236.613281 1425.859375 233.742188 1421.535156 C 231.710938 1418.519531 229.949219 1414.929688 228.894531 1411.445313 C 226.558594 1403.621094 225.550781 1395.464844 225.921875 1387.308594 C 226.011719 1385.324219 227.695313 1383.785156 229.679688 1383.875 C 231.664063 1383.964844 233.203125 1385.648438 233.113281 1387.632813 C 232.78125 1394.972656 233.683594 1402.3125 235.78125 1409.347656 C 237.828125 1415.855469 241.644531 1421.746094 248.25 1424.355469 C 254.398438 1426.8125 261.15625 1427.320313 267.605469 1425.816406 C 271.285156 1424.894531 274.84375 1423.539063 278.210938 1421.785156 Z M 1157.839844 1624.328125 C 1157.839844 1593.949219 1133.21875 1569.324219 1102.839844 1569.324219 C 1072.460938 1569.324219 1047.839844 1593.949219 1047.839844 1624.328125 C 1047.839844 1654.707031 1072.460938 1679.332031 1102.839844 1679.332031 C 1133.21875 1679.332031 1157.839844 1654.707031 1157.839844 1624.328125 Z M 1117.308594 1649.558594 L 1129.410156 1642.90625 C 1131.148438 1641.949219 1133.339844 1642.585938 1134.300781 1644.328125 C 1135.261719 1646.070313 1134.621094 1648.257813 1132.878906 1649.214844 C 1132.828125 1649.246094 1120.730469 1655.898438 1120.699219 1655.914063 C 1109.441406 1661.875 1097.089844 1663.761719 1084.71875 1658.832031 C 1079.871094 1656.960938 1075.71875 1653.628906 1072.839844 1649.308594 C 1070.808594 1646.292969 1069.050781 1642.699219 1068 1639.214844 C 1065.660156 1631.394531 1064.660156 1623.234375 1065.019531 1615.078125 C 1065.109375 1613.09375 1066.800781 1611.558594 1068.78125 1611.648438 C 1070.769531 1611.734375 1072.308594 1613.421875 1072.21875 1615.40625 C 1071.878906 1622.742188 1072.789063 1630.082031 1074.890625 1637.117188 C 1076.929688 1643.628906 1080.75 1649.515625 1087.351563 1652.128906 C 1093.5 1654.585938 1100.261719 1655.09375 1106.710938 1653.585938 C 1110.390625 1652.664063 1113.949219 1651.3125 1117.308594 1649.558594 Z M 1267.351563 1580.371094 C 1267.351563 1549.992188 1242.71875 1525.367188 1212.339844 1525.367188 C 1181.96875 1525.367188 1157.339844 1549.992188 1157.339844 1580.371094 C 1157.339844 1610.746094 1181.96875 1635.371094 1212.339844 1635.371094 C 1242.71875 1635.371094 1267.351563 1610.746094 1267.351563 1580.371094 Z M 1226.820313 1605.597656 L 1238.921875 1598.949219 C 1240.660156 1597.992188 1242.851563 1598.628906 1243.800781 1600.371094 C 1244.761719 1602.113281 1244.128906 1604.300781 1242.378906 1605.257813 C 1242.328125 1605.285156 1230.230469 1611.9375 1230.199219 1611.953125 C 1218.941406 1617.917969 1206.601563 1619.804688 1194.230469 1614.871094 C 1189.378906 1613.003906 1185.21875 1609.671875 1182.351563 1605.351563 C 1180.320313 1602.335938 1178.558594 1598.742188 1177.5 1595.257813 C 1175.160156 1587.4375 1174.160156 1579.277344 1174.53125 1571.121094 C 1174.621094 1569.136719 1176.300781 1567.597656 1178.289063 1567.6875 C 1180.269531 1567.777344 1181.808594 1569.460938 1181.71875 1571.449219 C 1181.390625 1578.785156 1182.289063 1586.121094 1184.390625 1593.160156 C 1186.441406 1599.671875 1190.25 1605.558594 1196.859375 1608.171875 C 1203.011719 1610.625 1209.761719 1611.136719 1216.210938 1609.628906 C 1219.890625 1608.707031 1223.449219 1607.355469 1226.820313 1605.597656 Z M 1607.03125 1282.507813 C 1607.03125 1252.128906 1582.398438 1227.503906 1552.03125 1227.503906 C 1521.648438 1227.503906 1497.019531 1252.128906 1497.019531 1282.507813 C 1497.019531 1312.882813 1521.648438 1337.507813 1552.03125 1337.507813 C 1582.398438 1337.507813 1607.03125 1312.882813 1607.03125 1282.507813 Z M 1566.5 1307.734375 L 1578.601563 1301.085938 C 1580.339844 1300.128906 1582.53125 1300.765625 1583.488281 1302.507813 C 1584.441406 1304.246094 1583.808594 1306.4375 1582.070313 1307.394531 C 1582.011719 1307.421875 1569.910156 1314.074219 1569.878906 1314.089844 C 1558.621094 1320.054688 1546.28125 1321.9375 1533.910156 1317.011719 C 1529.058594 1315.140625 1524.898438 1311.808594 1522.03125 1307.484375 C 1520 1304.472656 1518.238281 1300.878906 1517.179688 1297.394531 C 1514.851563 1289.570313 1513.839844 1281.414063 1514.210938 1273.257813 C 1514.300781 1271.273438 1515.980469 1269.734375 1517.96875 1269.824219 C 1519.949219 1269.914063 1521.488281 1271.597656 1521.398438 1273.585938 C 1521.070313 1280.921875 1521.96875 1288.261719 1524.070313 1295.296875 C 1526.121094 1301.804688 1529.929688 1307.695313 1536.539063 1310.308594 C 1542.691406 1312.761719 1549.441406 1313.269531 1555.890625 1311.765625 C 1559.570313 1310.84375 1563.128906 1309.492188 1566.5 1307.734375 Z M 120.597656 767.554688 C 120.597656 737.175781 95.972656 712.550781 65.597656 712.550781 C 35.21875 712.550781 10.59375 737.175781 10.59375 767.554688 C 10.59375 797.929688 35.21875 822.558594 65.597656 822.558594 C 95.972656 822.558594 120.597656 797.929688 120.597656 767.554688 Z M 80.070313 792.78125 L 92.167969 786.132813 C 93.910156 785.175781 96.097656 785.8125 97.054688 787.554688 C 98.015625 789.296875 97.378906 791.484375 95.636719 792.441406 C 95.585938 792.46875 83.484375 799.121094 83.453125 799.136719 C 72.191406 805.101563 59.847656 806.984375 47.480469 802.058594 C 42.628906 800.1875 38.472656 796.855469 35.601563 792.535156 C 33.570313 789.519531 31.808594 785.925781 30.753906 782.441406 C 28.417969 774.621094 27.410156 766.460938 27.78125 758.304688 C 27.871094 756.320313 29.554688 754.78125 31.539063 754.871094 C 33.527344 754.960938 35.0625 756.644531 34.972656 758.632813 C 34.640625 765.96875 35.542969 773.308594 37.644531 780.34375 C 39.6875 786.855469 43.503906 792.742188 50.109375 795.355469 C 56.257813 797.808594 63.015625 798.320313 69.464844 796.8125 C 73.144531 795.890625 76.703125 794.539063 80.070313 792.78125 Z M 182.589844 546.21875 C 182.589844 515.839844 157.964844 491.21875 127.585938 491.21875 C 97.210938 491.21875 72.585938 515.839844 72.585938 546.21875 C 72.585938 576.601563 97.210938 601.21875 127.585938 601.21875 C 157.964844 601.21875 182.589844 576.601563 182.589844 546.21875 Z M 142.0625 571.449219 L 154.160156 564.800781 C 155.902344 563.839844 158.089844 564.480469 159.046875 566.21875 C 160.003906 567.960938 159.367188 570.148438 157.628906 571.109375 C 157.574219 571.140625 145.476563 577.789063 145.445313 577.800781 C 134.183594 583.769531 121.839844 585.648438 109.472656 580.71875 C 104.617188 578.851563 100.464844 575.519531 97.589844 571.199219 C 95.5625 568.179688 93.796875 564.589844 92.746094 561.109375 C 90.40625 553.28125 89.402344 545.128906 89.769531 536.96875 C 89.859375 534.980469 91.542969 533.449219 93.53125 533.539063 C 95.515625 533.628906 97.054688 535.308594 96.964844 537.300781 C 96.632813 544.628906 97.535156 551.96875 99.632813 559.011719 C 101.679688 565.519531 105.496094 571.410156 112.097656 574.019531 C 118.25 576.46875 125.003906 576.980469 131.453125 575.480469 C 135.136719 574.558594 138.695313 573.199219 142.0625 571.449219 Z M 304.003906 352.089844 C 304.003906 321.710938 279.378906 297.078125 249.003906 297.078125 C 218.625 297.078125 194 321.710938 194 352.089844 C 194 382.460938 218.625 407.089844 249.003906 407.089844 C 279.378906 407.089844 304.003906 382.460938 304.003906 352.089844 Z M 263.476563 377.308594 L 275.574219 370.660156 C 277.316406 369.710938 279.503906 370.339844 280.464844 372.078125 C 281.421875 373.828125 280.785156 376.019531 279.042969 376.96875 C 278.992188 377 266.890625 383.648438 266.859375 383.671875 C 255.597656 389.628906 243.253906 391.519531 230.886719 386.589844 C 226.03125 384.71875 221.878906 381.390625 219.007813 377.070313 C 216.976563 374.050781 215.214844 370.460938 214.160156 366.96875 C 211.824219 359.148438 210.816406 350.988281 211.1875 342.839844 C 211.277344 340.851563 212.960938 339.308594 214.945313 339.398438 C 216.929688 339.488281 218.46875 341.179688 218.378906 343.160156 C 218.046875 350.5 218.949219 357.839844 221.046875 364.878906 C 223.09375 371.378906 226.910156 377.269531 233.515625 379.890625 C 239.664063 382.339844 246.421875 382.851563 252.867188 381.339844 C 256.550781 380.421875 260.109375 379.070313 263.476563 377.308594 Z M 234.058594 441.960938 C 234.058594 411.578125 209.429688 386.960938 179.054688 386.960938 C 148.675781 386.960938 124.050781 411.578125 124.050781 441.960938 C 124.050781 472.339844 148.675781 496.960938 179.054688 496.960938 C 209.429688 496.960938 234.058594 472.339844 234.058594 441.960938 Z M 193.527344 467.191406 L 205.625 460.539063 C 207.367188 459.578125 209.558594 460.21875 210.515625 461.960938 C 211.472656 463.699219 210.835938 465.890625 209.09375 466.851563 C 209.042969 466.871094 196.941406 473.53125 196.914063 473.539063 C 185.648438 479.511719 173.304688 481.390625 160.9375 476.460938 C 156.085938 474.589844 151.933594 471.261719 149.058594 466.941406 C 147.027344 463.921875 145.265625 460.328125 144.210938 456.851563 C 141.875 449.019531 140.867188 440.871094 141.238281 432.710938 C 141.328125 430.71875 143.011719 429.191406 144.996094 429.28125 C 146.984375 429.371094 148.519531 431.050781 148.429688 433.039063 C 148.097656 440.371094 149 447.710938 151.101563 454.75 C 153.148438 461.261719 156.960938 467.148438 163.566406 469.761719 C 169.714844 472.210938 176.472656 472.71875 182.921875 471.21875 C 186.601563 470.300781 190.164063 468.941406 193.527344 467.191406 Z M 382.691406 267.570313 C 382.691406 237.199219 358.066406 212.570313 327.6875 212.570313 C 297.3125 212.570313 272.6875 237.199219 272.6875 267.570313 C 272.6875 297.949219 297.3125 322.578125 327.6875 322.578125 C 358.066406 322.578125 382.691406 297.949219 382.691406 267.570313 Z M 342.160156 292.800781 L 354.257813 286.148438 C 356.003906 285.191406 358.191406 285.828125 359.148438 287.570313 C 360.105469 289.308594 359.46875 291.5 357.726563 292.460938 C 357.675781 292.488281 345.574219 299.140625 345.546875 299.160156 C 334.28125 305.121094 321.9375 307.011719 309.570313 302.078125 C 304.71875 300.210938 300.566406 296.878906 297.691406 292.550781 C 295.664063 289.539063 293.898438 285.941406 292.847656 282.460938 C 290.507813 274.640625 289.503906 266.480469 289.871094 258.328125 C 289.960938 256.339844 291.644531 254.800781 293.632813 254.890625 C 295.617188 254.980469 297.152344 256.660156 297.0625 258.648438 C 296.734375 265.988281 297.636719 273.328125 299.734375 280.359375 C 301.78125 286.871094 305.59375 292.761719 312.199219 295.371094 C 318.351563 297.828125 325.105469 298.339844 331.554688 296.828125 C 335.234375 295.910156 338.796875 294.558594 342.160156 292.800781 Z M 475.472656 197.339844 C 475.472656 166.96875 450.847656 142.339844 420.46875 142.339844 C 390.089844 142.339844 365.464844 166.96875 365.464844 197.339844 C 365.464844 227.71875 390.089844 252.351563 420.46875 252.351563 C 450.847656 252.351563 475.472656 227.71875 475.472656 197.339844 Z M 434.941406 222.570313 L 447.039063 215.921875 C 448.78125 214.96875 450.972656 215.601563 451.929688 217.339844 C 452.886719 219.089844 452.25 221.269531 450.507813 222.230469 C 450.457031 222.261719 438.355469 228.910156 438.328125 228.929688 C 427.0625 234.890625 414.71875 236.78125 402.351563 231.851563 C 397.5 229.980469 393.347656 226.648438 390.472656 222.320313 C 388.441406 219.308594 386.679688 215.71875 385.628906 212.230469 C 383.289063 204.410156 382.285156 196.25 382.652344 188.101563 C 382.742188 186.109375 384.425781 184.570313 386.410156 184.660156 C 388.398438 184.75 389.933594 186.441406 389.84375 188.421875 C 389.511719 195.761719 390.414063 203.101563 392.515625 210.140625 C 394.5625 216.640625 398.375 222.53125 404.980469 225.140625 C 411.132813 227.601563 417.886719 228.109375 424.335938 226.601563 C 428.015625 225.679688 431.578125 224.328125 434.941406 222.570313 Z M 831.746094 330.058594 L 831.746094 279.121094 L 882.691406 279.121094 L 882.691406 330.71875 C 882.691406 330.71875 883.660156 330.519531 885.316406 330.128906 C 949.253906 315.328125 968.054688 280.28125 981.570313 220.328125 C 982.1875 217.589844 982.539063 215.949219 982.539063 215.949219 L 1026.03125 215.949219 C 1026.03125 215.949219 1025.710938 217.289063 1025.128906 219.621094 C 1002.839844 309.261719 978.695313 348 887.132813 373.671875 C 884.34375 374.449219 882.691406 374.890625 882.691406 374.890625 L 882.691406 431.949219 L 951.972656 431.949219 L 951.972656 362.671875 L 1062.011719 362.671875 L 1062.011719 431.949219 L 1096.648438 431.949219 L 1096.648438 330.058594 L 1145.558594 330.058594 L 1145.558594 474.738281 L 1059.96875 474.738281 L 1059.96875 541.988281 L 951.972656 541.988281 L 951.972656 476.78125 L 882.691406 476.78125 L 882.691406 546.058594 L 831.746094 546.058594 L 831.746094 476.78125 L 750.238281 476.78125 L 750.238281 574.589844 L 664.652344 574.589844 L 664.652344 550.140625 L 697.257813 550.140625 L 697.257813 431.949219 L 831.746094 431.949219 L 831.746094 376.589844 C 831.746094 376.589844 830.300781 376.148438 827.878906 375.390625 C 754.558594 360.199219 698.464844 312.558594 693.019531 220.300781 C 693.097656 217.640625 693.179688 215.949219 693.179688 215.949219 L 738.011719 215.949219 C 738.011719 215.949219 737.890625 217.921875 737.789063 220.910156 C 736.335938 262.96875 777.578125 330.660156 828.132813 330.179688 C 830.210938 330.171875 831.746094 330.058594 831.746094 330.058594 Z M 829.710938 264.859375 L 829.710938 215.949219 L 880.652344 215.949219 L 880.652344 264.859375 Z M 1051.820313 293.390625 L 1051.820313 244.480469 L 1100.730469 244.480469 L 1100.730469 293.390625 Z M 1123.140625 293.390625 L 1123.140625 244.480469 L 1174.089844 244.480469 L 1174.089844 293.390625 Z M 1027.371094 431.949219 L 1027.371094 395.269531 L 992.726563 395.269531 L 992.726563 431.949219 Z M 1027.371094 505.308594 L 1027.371094 476.78125 L 992.726563 476.78125 L 992.726563 505.308594 Z M 974.386719 733.535156 L 1027.371094 733.535156 L 1027.371094 815.046875 L 1051.820313 815.046875 L 1051.820313 668.328125 L 1102.769531 668.328125 L 1102.769531 863.953125 L 591.292969 863.953125 L 593.332031 550.140625 L 644.273438 550.140625 L 644.273438 713.160156 L 703.367188 713.160156 L 703.367188 609.230469 L 880.652344 609.460938 L 880.652344 652.03125 L 750.238281 652.03125 L 750.238281 815.046875 L 831.746094 815.046875 L 831.746094 733.535156 L 884.726563 733.535156 L 884.726563 815.046875 L 905.105469 815.046875 L 905.105469 733.535156 L 958.085938 733.535156 L 958.085938 815.046875 L 974.386719 815.046875 Z M 1125.179688 794.667969 L 1125.179688 550.140625 L 1174.089844 550.140625 L 1174.089844 794.667969 Z M 754.3125 599.050781 L 754.3125 578.671875 L 827.671875 578.671875 L 827.671875 599.050781 Z M 937.710938 607.199219 L 990.691406 607.199219 L 990.691406 652.03125 L 937.710938 652.03125 Z M 905.105469 717.230469 L 905.105469 664.25 L 958.085938 664.25 L 958.085938 717.230469 Z M 974.386719 717.230469 L 974.386719 664.25 L 1027.371094 664.25 L 1027.371094 717.230469 Z M 1259.671875 815.046875 L 1259.671875 713.160156 L 1210.769531 713.160156 L 1210.769531 664.25 L 1310.839844 664.25 L 1310.609375 863.953125 L 1182.238281 863.953125 L 1182.238281 815.046875 Z M 407.898438 872.101563 L 407.898438 713.160156 L 570.914063 713.160156 L 570.914063 872.101563 Z M 517.933594 819.121094 L 517.933594 766.140625 L 464.953125 766.140625 L 464.953125 819.121094 Z M 703.367188 815.046875 L 703.367188 766.140625 L 644.273438 766.140625 L 644.273438 815.046875 Z M 464.953125 1227.199219 C 464.953125 1220.597656 464.359375 1219.433594 459.003906 1215.566406 C 455.101563 1212.746094 451.320313 1209.96875 447.652344 1207.226563 C 386.6875 1152.933594 357.953125 1126.269531 312.398438 1069.277344 C 303.421875 1058.042969 293.808594 1045.925781 283.277344 1032.707031 C 279.160156 1027.542969 278.597656 1026.957031 277.617188 1026.847656 C 276.894531 1026.765625 276.046875 1026.738281 275.445313 1026.96875 C 273.160156 1027.84375 280.742188 1046.074219 289.710938 1061.613281 C 314.703125 1104.921875 344.160156 1150.648438 357.972656 1167.574219 C 372.269531 1185.09375 419.632813 1240.976563 440.5 1254.179688 C 451.253906 1260.980469 464.953125 1267.933594 464.953125 1267.933594 Z M 283.195313 714.671875 C 282.953125 710.660156 272.910156 727.046875 267.339844 738.164063 C 256.753906 759.289063 252.351563 778.398438 253.015625 797.621094 C 262.953125 907.917969 414.863281 1063.503906 506.898438 1115.910156 C 511.566406 1118.578125 515.03125 1120.335938 516.550781 1120.707031 C 520.976563 1121.789063 525.007813 1122.058594 529.507813 1120.707031 C 547.195313 1115.390625 546.164063 1098.722656 537.292969 1086.066406 C 533.804688 1081.082031 468.09375 1043.6875 428.273438 1019.839844 C 383.136719 992.800781 332.875 940.550781 303.972656 895.535156 C 281.46875 860.484375 261.546875 807.878906 269.332031 770.867188 C 273.378906 751.621094 284.039063 728.484375 283.195313 714.671875 Z M 294.339844 1118.855469 C 323.433594 1179.402344 379.09375 1265.894531 435.941406 1306.21875 C 441.867188 1310.417969 447.203125 1309.796875 449.539063 1293.519531 C 451.6875 1278.570313 448.484375 1274.9375 435.332031 1263.609375 C 408.484375 1240.484375 385.3125 1217.421875 365.105469 1193.046875 C 334.476563 1156.097656 285.632813 1090.140625 285.632813 1090.140625 C 285.632813 1090.140625 285.492188 1093.472656 285.632813 1096.660156 C 285.765625 1099.671875 289.519531 1108.832031 294.339844 1118.855469 Z M 514.328125 1146.515625 C 513.90625 1142.835938 513.277344 1141.980469 508.039063 1137.960938 C 393.753906 1050.183594 318.234375 981.558594 256.988281 852.246094 C 254.160156 846.273438 253.683594 845.59375 252.214844 845.425781 C 251.128906 845.300781 249.902344 845.265625 248.953125 845.613281 C 247.589844 846.109375 251.285156 862.269531 255.875 878.4375 C 267.855469 954.472656 438.140625 1152.933594 504.050781 1165.71875 C 510.464844 1163.453125 515.632813 1157.933594 514.328125 1146.515625 Z M 489.40625 1186.445313 C 489.40625 1179.839844 488.835938 1178.648438 483.683594 1174.515625 C 412.324219 1117.269531 357.25 1073.925781 316.199219 1013.726563 C 291.984375 978.214844 253.03125 911.664063 253.03125 911.664063 C 253.03125 911.664063 252.832031 918.683594 253.03125 925.085938 C 254 956.6875 275.300781 996.445313 292.746094 1025.015625 C 318.554688 1067.269531 416.089844 1173.761719 469.578125 1211.148438 C 471.96875 1213.25 473.425781 1214.410156 473.757813 1214.441406 C 481.585938 1215.144531 489.40625 1214.441406 489.40625 1214.441406 Z M 611.671875 1121.929688 C 612.046875 1118.828125 603.878906 1111.539063 597.40625 1107.460938 C 586.3125 1100.46875 568.246094 1088.355469 557.996094 1092.179688 C 545.417969 1096.867188 550.269531 1108.960938 556.464844 1120.292969 C 561.171875 1128.910156 581.507813 1154.882813 592.109375 1151.273438 C 595.910156 1149.976563 611.019531 1127.3125 611.671875 1121.929688 Z M 593.539063 1166.660156 C 593.351563 1165.023438 592.757813 1164.382813 587.59375 1160.246094 C 571.289063 1147.1875 535.195313 1127.609375 526.085938 1142.429688 C 520.363281 1151.738281 535.449219 1172.652344 546.464844 1180.820313 C 555 1187.148438 568.515625 1194.65625 568.515625 1194.65625 C 570.792969 1191.148438 575.609375 1181.699219 581.933594 1177.875 C 591.34375 1172.1875 594.253906 1172.914063 593.539063 1166.660156 Z M 562.765625 1213.628906 C 562.273438 1212.179688 561.003906 1210.199219 559.710938 1208.328125 C 551.019531 1195.785156 524.257813 1168.152344 507.746094 1180.820313 C 496.234375 1189.648438 502.226563 1205.957031 510.804688 1216.480469 C 512.480469 1218.535156 524.8125 1230.886719 529.683594 1232.226563 C 537.164063 1234.285156 556.3125 1222.558594 560.726563 1219.535156 C 562.519531 1218.3125 563.769531 1216.574219 562.765625 1213.628906 Z M 518.359375 1370.320313 C 518.359375 1370.320313 509.046875 1365.007813 495.839844 1357.320313 C 424.671875 1315.910156 410.128906 1311.148438 358.269531 1246.234375 C 349.738281 1235.554688 342.691406 1226.667969 342.691406 1226.667969 C 342.691406 1226.667969 342.53125 1230.113281 342.691406 1233.476563 C 342.9375 1238.695313 374.914063 1292.757813 384.464844 1304.101563 C 393.363281 1314.675781 400.542969 1324.660156 408.914063 1334.667969 C 426.945313 1356.21875 466.425781 1385.886719 489 1381.535156 C 500.878906 1379.246094 518.359375 1370.320313 518.359375 1370.320313 Z M 524.046875 1269.949219 C 524.046875 1263.347656 523.996094 1262.152344 523.546875 1257.992188 C 522.457031 1247.996094 517.828125 1243.089844 507.746094 1237.875 C 496.921875 1232.277344 477.179688 1223.628906 477.179688 1223.628906 L 477.179688 1255.523438 C 477.179688 1262.128906 477.722656 1263.359375 482.585938 1267.835938 C 492.902344 1277.324219 507.273438 1289.273438 515.898438 1289.839844 C 519.367188 1290.066406 524.046875 1289.839844 524.046875 1289.839844 Z M 501.632813 1301.371094 L 460.878906 1281.320313 L 460.878906 1306.832031 L 495.113281 1330.59375 L 501.632813 1330.59375 Z M 615.746094 1100.328125 C 615.746094 1100.328125 615.160156 1108.648438 615.746094 1113.941406 C 616.703125 1122.59375 631.367188 1138.488281 640.199219 1144.140625 C 650.308594 1150.609375 666.121094 1156.796875 666.121094 1156.796875 C 666.121094 1156.796875 664.53125 1143.234375 666.09375 1133.859375 C 667.480469 1125.546875 671.347656 1120.527344 670.765625 1117.855469 C 669.917969 1113.953125 637.222656 1100.828125 631.394531 1100.328125 C 624.980469 1099.78125 615.746094 1100.328125 615.746094 1100.328125 Z M 682.355469 1184.011719 C 682.355469 1184.011719 668.078125 1171.339844 656.5 1162.480469 C 643.992188 1152.90625 632.6875 1146.773438 624.589844 1145.160156 C 616.855469 1143.617188 607.105469 1145.59375 606.46875 1153.601563 C 606.097656 1158.296875 617.699219 1179.8125 625.933594 1189.988281 C 635.933594 1202.339844 656.273438 1221.6875 656.273438 1221.6875 C 656.273438 1221.6875 656.882813 1207.648438 663.632813 1198.140625 C 670.140625 1188.972656 682.355469 1184.011719 682.355469 1184.011719 Z M 672.804688 1333.976563 C 671.789063 1332 669.308594 1329.652344 666.691406 1327.535156 C 657.640625 1320.230469 635.527344 1309.722656 624.550781 1312.253906 C 610.851563 1315.410156 612.199219 1328.996094 620.839844 1340.78125 C 625.675781 1347.375 642.445313 1364.171875 649.164063 1363.195313 C 651.664063 1362.835938 677.496094 1343.109375 672.804688 1333.976563 Z M 564.804688 1327.738281 C 556.527344 1317.21875 539.640625 1302.441406 526.902344 1300.027344 C 519.253906 1298.578125 514.378906 1306.253906 518.664063 1316.738281 C 521.710938 1324.1875 536.65625 1341.714844 541.695313 1342.820313 C 544.867188 1343.515625 562.421875 1337.910156 564.804688 1331.40625 C 565.3125 1330.011719 565.371094 1328.460938 564.804688 1327.738281 Z M 666.691406 1262.941406 C 659.445313 1236.722656 611.125 1178.695313 592.3125 1181.839844 C 582.234375 1183.523438 576.039063 1193.769531 579.066406 1207.675781 C 582.464844 1223.292969 623.613281 1262.679688 636.125 1270.480469 C 639.902344 1272.835938 643.167969 1274.253906 646.964844 1275.574219 C 659.480469 1279.933594 670.847656 1277.996094 666.691406 1262.941406 Z M 622.136719 1293.535156 C 622.136719 1293.535156 599.21875 1267.609375 583.324219 1253.925781 C 576.824219 1248.328125 560.703125 1241.097656 556.378906 1241.839844 C 550.410156 1242.859375 541.359375 1248.539063 538.3125 1256.542969 C 532.070313 1272.925781 550.117188 1298.265625 564.59375 1307.488281 C 575.097656 1314.183594 593.445313 1323.808594 593.445313 1323.808594 C 593.445313 1323.808594 599.355469 1311.445313 602.5 1306.140625 C 604.03125 1303.558594 604.90625 1302.648438 607.597656 1301.046875 C 612.203125 1298.300781 622.136719 1293.535156 622.136719 1293.535156 Z M 1271.101563 1227.199219 L 1271.101563 1267.933594 C 1271.101563 1267.933594 1284.800781 1260.980469 1295.558594 1254.179688 C 1316.421875 1240.976563 1363.789063 1185.09375 1378.078125 1167.574219 C 1391.898438 1150.648438 1421.351563 1104.921875 1446.351563 1061.613281 C 1455.308594 1046.074219 1462.898438 1027.84375 1460.609375 1026.96875 C 1460.011719 1026.738281 1459.160156 1026.765625 1458.441406 1026.847656 C 1457.460938 1026.957031 1456.890625 1027.542969 1452.78125 1032.707031 C 1442.25 1045.925781 1432.640625 1058.042969 1423.660156 1069.277344 C 1378.101563 1126.269531 1349.371094 1152.933594 1288.398438 1207.226563 C 1284.738281 1209.96875 1280.960938 1212.746094 1277.050781 1215.566406 C 1271.699219 1219.433594 1271.101563 1220.597656 1271.101563 1227.199219 Z M 1452.859375 714.671875 C 1452.019531 728.484375 1462.679688 751.621094 1466.730469 770.867188 C 1474.511719 807.878906 1454.589844 860.484375 1432.078125 895.535156 C 1403.179688 940.550781 1352.921875 992.800781 1307.78125 1019.839844 C 1267.960938 1043.6875 1202.25 1081.082031 1198.761719 1086.066406 C 1189.890625 1098.722656 1188.859375 1115.390625 1206.550781 1120.707031 C 1211.050781 1122.058594 1215.078125 1121.789063 1219.511719 1120.707031 C 1221.03125 1120.335938 1224.488281 1118.578125 1229.160156 1115.910156 C 1321.191406 1063.503906 1473.101563 907.917969 1483.039063 797.621094 C 1483.710938 778.398438 1479.300781 759.289063 1468.71875 738.164063 C 1463.148438 727.046875 1453.101563 710.660156 1452.859375 714.671875 Z M 1441.71875 1118.855469 C 1446.539063 1108.832031 1450.289063 1099.671875 1450.421875 1096.660156 C 1450.558594 1093.472656 1450.421875 1090.140625 1450.421875 1090.140625 C 1450.421875 1090.140625 1401.578125 1156.097656 1370.949219 1193.046875 C 1350.75 1217.421875 1327.570313 1240.484375 1300.730469 1263.609375 C 1287.570313 1274.9375 1284.371094 1278.570313 1286.519531 1293.519531 C 1288.851563 1309.796875 1294.191406 1310.417969 1300.109375 1306.21875 C 1356.960938 1265.894531 1412.621094 1179.402344 1441.71875 1118.855469 Z M 1221.730469 1146.515625 C 1220.429688 1157.933594 1225.589844 1163.453125 1232 1165.71875 C 1297.921875 1152.933594 1468.199219 954.472656 1480.179688 878.4375 C 1484.769531 862.269531 1488.46875 846.109375 1487.101563 845.613281 C 1486.160156 845.265625 1484.929688 845.300781 1483.839844 845.425781 C 1482.378906 845.59375 1481.898438 846.273438 1479.070313 852.246094 C 1417.820313 981.558594 1342.300781 1050.183594 1228.019531 1137.960938 C 1222.78125 1141.980469 1222.148438 1142.835938 1221.730469 1146.515625 Z M 1246.648438 1186.445313 L 1246.648438 1214.441406 C 1246.648438 1214.441406 1254.46875 1215.144531 1262.300781 1214.441406 C 1262.628906 1214.410156 1264.089844 1213.25 1266.480469 1211.148438 C 1319.96875 1173.761719 1417.5 1067.269531 1443.308594 1025.015625 C 1460.761719 996.445313 1482.058594 956.6875 1483.03125 925.085938 C 1483.21875 918.683594 1483.03125 911.664063 1483.03125 911.664063 C 1483.03125 911.664063 1444.070313 978.214844 1419.859375 1013.726563 C 1378.808594 1073.925781 1323.730469 1117.269531 1252.371094 1174.515625 C 1247.21875 1178.648438 1246.648438 1179.839844 1246.648438 1186.445313 Z M 1124.390625 1121.929688 C 1125.039063 1127.3125 1140.148438 1149.976563 1143.949219 1151.273438 C 1154.550781 1154.882813 1174.878906 1128.910156 1179.589844 1120.292969 C 1185.789063 1108.960938 1190.640625 1096.867188 1178.058594 1092.179688 C 1167.808594 1088.355469 1149.738281 1100.46875 1138.648438 1107.460938 C 1132.179688 1111.539063 1124.011719 1118.828125 1124.390625 1121.929688 Z M 1173.289063 1213.628906 C 1172.289063 1216.574219 1173.539063 1218.3125 1175.328125 1219.535156 C 1179.738281 1222.558594 1198.890625 1234.285156 1206.371094 1232.226563 C 1211.238281 1230.886719 1223.578125 1218.535156 1225.25 1216.480469 C 1233.828125 1205.957031 1239.820313 1189.648438 1228.308594 1180.820313 C 1211.800781 1168.152344 1185.039063 1195.785156 1176.351563 1208.328125 C 1175.050781 1210.199219 1173.78125 1212.179688 1173.289063 1213.628906 Z M 1217.699219 1370.320313 C 1217.699219 1370.320313 1235.179688 1379.246094 1247.058594 1381.535156 C 1269.628906 1385.886719 1309.109375 1356.21875 1327.140625 1334.667969 C 1335.511719 1324.660156 1342.691406 1314.675781 1351.589844 1304.101563 C 1361.140625 1292.757813 1393.121094 1238.695313 1393.371094 1233.476563 C 1393.53125 1230.113281 1393.371094 1226.667969 1393.371094 1226.667969 C 1393.371094 1226.667969 1386.320313 1235.554688 1377.789063 1246.234375 C 1325.929688 1311.148438 1311.390625 1315.910156 1240.21875 1357.320313 C 1227.011719 1365.007813 1217.699219 1370.320313 1217.699219 1370.320313 Z M 1212.011719 1269.949219 L 1212.011719 1289.839844 C 1212.011719 1289.839844 1216.691406 1290.066406 1220.160156 1289.839844 C 1228.78125 1289.273438 1243.160156 1277.324219 1253.46875 1267.835938 C 1258.339844 1263.359375 1258.878906 1262.128906 1258.878906 1255.523438 L 1258.878906 1223.628906 C 1258.878906 1223.628906 1239.140625 1232.277344 1228.308594 1237.875 C 1218.230469 1243.089844 1213.601563 1247.996094 1212.511719 1257.992188 C 1212.058594 1262.152344 1212.011719 1263.347656 1212.011719 1269.949219 Z M 1234.421875 1301.371094 L 1234.421875 1330.59375 L 1240.941406 1330.59375 L 1275.179688 1306.832031 L 1275.179688 1281.320313 Z M 1171.25 1327.738281 C 1170.691406 1328.460938 1170.738281 1330.011719 1171.25 1331.40625 C 1173.628906 1337.910156 1191.191406 1343.515625 1194.359375 1342.820313 C 1199.398438 1341.714844 1214.351563 1324.1875 1217.390625 1316.738281 C 1221.679688 1306.253906 1216.800781 1298.578125 1209.160156 1300.027344 C 1196.410156 1302.441406 1179.53125 1317.21875 1171.25 1327.738281 Z M 757.984375 1180.25 C 757.984375 1180.25 744.59375 1167.996094 733.933594 1159.421875 C 717.347656 1146.078125 698.769531 1136.527344 688.410156 1141.085938 C 671.425781 1148.558594 687.644531 1181.207031 706.425781 1202.214844 C 715.164063 1211.992188 727.382813 1222.941406 727.382813 1222.941406 C 727.382813 1222.941406 731.3125 1200.808594 739.03125 1192.027344 C 746.3125 1183.738281 757.984375 1180.25 757.984375 1180.25 Z M 729.179688 1255.195313 C 729.179688 1255.195313 724.027344 1242.8125 719.671875 1233.800781 C 711.648438 1217.203125 701.320313 1202.085938 685.03125 1198.140625 C 665.386719 1193.382813 663.203125 1227.101563 668.726563 1243.664063 C 673.773438 1258.789063 686.667969 1281.328125 686.667969 1281.328125 C 686.667969 1281.328125 697.941406 1266.703125 703.367188 1260.289063 C 707.753906 1255.113281 719.675781 1255.035156 729.179688 1255.195313 Z M 742.085938 1279.648438 C 757.488281 1278.484375 772.71875 1276.953125 777.90625 1273.367188 C 790.109375 1264.929688 783.019531 1221.027344 768.578125 1209.347656 C 760.699219 1202.976563 750.730469 1207.152344 744.210938 1221.351563 C 742.296875 1225.511719 742.085938 1226.710938 742.085938 1279.648438 Z M 750.238281 1320.402344 C 750.238281 1320.402344 750.609375 1315.777344 750.238281 1312.253906 C 748.898438 1299.527344 725.101563 1277.996094 717.632813 1275.574219 C 713.46875 1274.226563 704.039063 1277.285156 698.828125 1287.964844 C 697.414063 1290.859375 697.257813 1291.917969 697.257813 1322.441406 Z M 795.984375 1343.003906 C 795.984375 1343.003906 807.554688 1329.941406 814.425781 1320.402344 C 830.082031 1298.675781 840.300781 1253.613281 839.898438 1232.78125 C 838.550781 1163.078125 782.921875 1098.324219 726.804688 1065.6875 C 709.789063 1055.792969 579.140625 1000.816406 495.75 965.425781 C 478.890625 958.269531 471.21875 960.597656 458.996094 934.863281 C 457.738281 930.179688 457.136719 926.214844 454.589844 924.230469 C 451.378906 921.726563 438.6875 923.617188 427.148438 923.730469 C 404.585938 923.953125 380.203125 913.171875 363.066406 900.632813 C 334.070313 879.410156 306.777344 833.949219 304.808594 794.097656 C 302.945313 756.449219 318.082031 724.160156 356.507813 750.214844 C 362.578125 753.265625 367.144531 755.953125 367.144531 755.953125 C 367.144531 755.953125 367.660156 746.644531 367.144531 740.300781 C 366.546875 732.992188 364.570313 729.628906 362.046875 725.390625 C 352.09375 708.640625 342.847656 700.378906 322.964844 705.011719 C 279.890625 715.03125 274.378906 784.175781 283.597656 822.179688 C 303.640625 904.820313 371.65625 958.699219 440.5 1009.648438 C 455.902344 1021.050781 561.125 1079.789063 566.433594 1079.953125 C 580.941406 1080.398438 593.378906 1074.71875 608.980469 1075.875 C 632.398438 1077.613281 683.605469 1101.515625 707.445313 1117.648438 C 762.640625 1155.003906 821.925781 1233.824219 785.898438 1293.914063 C 778.496094 1306.257813 764.640625 1323.894531 764.640625 1323.894531 Z M 866.4375 1493.613281 L 866.4375 1418.214844 L 839.949219 1418.214844 L 839.949219 1493.613281 Z M 1142.519531 1166.660156 C 1141.800781 1172.914063 1144.710938 1172.1875 1154.121094 1177.875 C 1160.449219 1181.699219 1165.261719 1191.148438 1167.539063 1194.65625 C 1167.539063 1194.65625 1181.058594 1187.148438 1189.589844 1180.820313 C 1200.609375 1172.652344 1215.691406 1151.738281 1209.96875 1142.429688 C 1200.859375 1127.609375 1164.769531 1147.1875 1148.460938 1160.246094 C 1143.300781 1164.382813 1142.699219 1165.023438 1142.519531 1166.660156 Z M 1120.308594 1100.328125 C 1120.308594 1100.328125 1111.078125 1099.78125 1104.660156 1100.328125 C 1098.828125 1100.828125 1066.140625 1113.953125 1065.289063 1117.855469 C 1064.710938 1120.527344 1068.578125 1125.546875 1069.960938 1133.859375 C 1071.53125 1143.234375 1069.941406 1156.796875 1069.941406 1156.796875 C 1069.941406 1156.796875 1085.75 1150.609375 1095.859375 1144.140625 C 1104.691406 1138.488281 1119.351563 1122.59375 1120.308594 1113.941406 C 1120.898438 1108.648438 1120.308594 1100.328125 1120.308594 1100.328125 Z M 1053.699219 1184.011719 C 1053.699219 1184.011719 1065.921875 1188.972656 1072.421875 1198.140625 C 1079.171875 1207.648438 1079.78125 1221.6875 1079.78125 1221.6875 C 1079.78125 1221.6875 1100.128906 1202.339844 1110.121094 1189.988281 C 1118.359375 1179.8125 1129.960938 1158.296875 1129.589844 1153.601563 C 1128.949219 1145.59375 1119.199219 1143.617188 1111.46875 1145.160156 C 1103.371094 1146.773438 1092.058594 1152.90625 1079.558594 1162.480469 C 1067.980469 1171.339844 1053.699219 1184.011719 1053.699219 1184.011719 Z M 978.070313 1180.25 C 978.070313 1180.25 989.742188 1183.738281 997.027344 1192.027344 C 1004.738281 1200.808594 1008.671875 1222.941406 1008.671875 1222.941406 C 1008.671875 1222.941406 1020.890625 1211.992188 1029.628906 1202.214844 C 1048.410156 1181.207031 1064.628906 1148.558594 1047.640625 1141.085938 C 1037.289063 1136.527344 1018.710938 1146.078125 1002.121094 1159.421875 C 991.460938 1167.996094 978.070313 1180.25 978.070313 1180.25 Z M 1006.878906 1255.195313 C 1016.378906 1255.035156 1028.300781 1255.113281 1032.691406 1260.289063 C 1038.121094 1266.703125 1049.390625 1281.328125 1049.390625 1281.328125 C 1049.390625 1281.328125 1062.28125 1258.789063 1067.328125 1243.664063 C 1072.851563 1227.101563 1070.671875 1193.382813 1051.03125 1198.140625 C 1034.738281 1202.085938 1024.410156 1217.203125 1016.390625 1233.800781 C 1012.03125 1242.8125 1006.878906 1255.195313 1006.878906 1255.195313 Z M 993.96875 1279.648438 C 993.96875 1226.710938 993.757813 1225.511719 991.847656 1221.351563 C 985.324219 1207.152344 975.359375 1202.976563 967.480469 1209.347656 C 953.035156 1221.027344 945.949219 1264.929688 958.152344 1273.367188 C 963.339844 1276.953125 978.566406 1278.484375 993.96875 1279.648438 Z M 985.820313 1320.402344 L 1038.800781 1322.441406 C 1038.800781 1291.917969 1038.640625 1290.859375 1037.230469 1287.964844 C 1032.019531 1277.285156 1022.589844 1274.226563 1018.421875 1275.574219 C 1010.960938 1277.996094 987.15625 1299.527344 985.820313 1312.253906 C 985.449219 1315.777344 985.820313 1320.402344 985.820313 1320.402344 Z M 1063.25 1333.976563 C 1058.558594 1343.109375 1084.390625 1362.835938 1086.890625 1363.195313 C 1093.609375 1364.171875 1110.378906 1347.375 1115.21875 1340.78125 C 1123.859375 1328.996094 1125.199219 1315.410156 1111.511719 1312.253906 C 1100.53125 1309.722656 1078.421875 1320.230469 1069.371094 1327.535156 C 1066.75 1329.652344 1064.269531 1332 1063.25 1333.976563 Z M 1069.371094 1262.941406 C 1065.210938 1277.996094 1076.578125 1279.933594 1089.089844 1275.574219 C 1092.890625 1274.253906 1096.160156 1272.835938 1099.929688 1270.480469 C 1112.441406 1262.679688 1153.589844 1223.292969 1156.988281 1207.675781 C 1160.019531 1193.769531 1153.820313 1183.523438 1143.738281 1181.839844 C 1124.929688 1178.695313 1076.609375 1236.722656 1069.371094 1262.941406 Z M 940.074219 1343.003906 L 971.414063 1323.894531 C 971.414063 1323.894531 957.5625 1306.257813 950.160156 1293.914063 C 914.132813 1233.824219 973.414063 1155.003906 1028.609375 1117.648438 C 1052.449219 1101.515625 1103.660156 1077.613281 1127.078125 1075.875 C 1142.679688 1074.71875 1155.109375 1080.398438 1169.621094 1079.953125 C 1174.929688 1079.789063 1280.148438 1021.050781 1295.558594 1009.648438 C 1364.398438 958.699219 1432.421875 904.820313 1452.460938 822.179688 C 1461.679688 784.175781 1456.160156 715.03125 1413.089844 705.011719 C 1393.210938 700.378906 1383.960938 708.640625 1374.011719 725.390625 C 1371.488281 729.628906 1369.511719 732.992188 1368.910156 740.300781 C 1368.398438 746.644531 1368.910156 755.953125 1368.910156 755.953125 C 1368.910156 755.953125 1373.480469 753.265625 1379.550781 750.214844 C 1417.96875 724.160156 1433.109375 756.449219 1431.25 794.097656 C 1429.28125 833.949219 1401.988281 879.410156 1372.988281 900.632813 C 1355.851563 913.171875 1331.46875 923.953125 1308.910156 923.730469 C 1297.371094 923.617188 1284.679688 921.726563 1281.46875 924.230469 C 1278.921875 926.214844 1278.320313 930.179688 1277.058594 934.863281 C 1264.839844 960.597656 1257.171875 958.269531 1240.308594 965.425781 C 1156.921875 1000.816406 1026.269531 1055.792969 1009.25 1065.6875 C 953.136719 1098.324219 897.507813 1163.078125 896.160156 1232.78125 C 895.757813 1253.613281 905.972656 1298.675781 921.632813 1320.402344 C 928.503906 1329.941406 940.074219 1343.003906 940.074219 1343.003906 Z M 1113.921875 1293.535156 C 1113.921875 1293.535156 1123.851563 1298.300781 1128.460938 1301.046875 C 1131.148438 1302.648438 1132.03125 1303.558594 1133.558594 1306.140625 C 1136.699219 1311.445313 1142.609375 1323.808594 1142.609375 1323.808594 C 1142.609375 1323.808594 1160.960938 1314.183594 1171.460938 1307.488281 C 1185.941406 1298.265625 1203.988281 1272.925781 1197.738281 1256.542969 C 1194.699219 1248.539063 1185.648438 1242.859375 1179.679688 1241.839844 C 1175.351563 1241.097656 1159.230469 1248.328125 1152.730469 1253.925781 C 1136.839844 1267.609375 1113.921875 1293.535156 1113.921875 1293.535156 Z M 868.027344 1400.222656 C 871.058594 1400.3125 874.207031 1400.59375 877.328125 1401.109375 C 903.640625 1404.144531 900.496094 1419.867188 900.394531 1446.070313 C 901.113281 1466.597656 900.644531 1493.003906 900.644531 1493.003906 L 936.914063 1497.6875 C 936.914063 1497.6875 936.914063 1479.503906 936.914063 1470.179688 C 936.914063 1445.1875 941.066406 1411.648438 958.1875 1391.519531 C 965.402344 1383.035156 975.070313 1376.867188 988.507813 1373.386719 C 1003.671875 1369.460938 1018.980469 1374.203125 1031.671875 1387.648438 C 1038.429688 1394.808594 1039.328125 1406.730469 1030.648438 1413.121094 C 1028.128906 1414.976563 1025.078125 1416.238281 1020.460938 1416.179688 C 1010.71875 1416.054688 993.96875 1410.066406 993.96875 1410.066406 C 993.96875 1410.066406 992.648438 1428.148438 993.292969 1437.683594 C 994.101563 1449.664063 1000.710938 1459.285156 1010.140625 1465.855469 C 1076.179688 1498.40625 1101.101563 1431.289063 1130.429688 1399.398438 C 1133.660156 1395.882813 1136.929688 1392.621094 1140.199219 1389.738281 C 1161.109375 1371.332031 1187.871094 1371.636719 1185.351563 1406.625 C 1184.621094 1416.929688 1183.648438 1425.6875 1192.449219 1422.289063 C 1200.300781 1419.257813 1211.308594 1401.746094 1214.050781 1393.109375 C 1220.878906 1371.511719 1201.359375 1349.363281 1176.710938 1344.855469 C 1158.441406 1341.515625 1138.851563 1346.503906 1120.308594 1358.101563 C 1101.761719 1369.714844 1074.761719 1391.269531 1074.761719 1391.269531 C 1074.761719 1391.269531 1064.789063 1366.976563 1056.429688 1354.808594 C 1042.449219 1334.460938 1016.261719 1334.007813 990.546875 1340.78125 C 936.234375 1355.089844 906.347656 1372.578125 868.578125 1372.65625 C 868.394531 1372.65625 868.210938 1372.65625 868.027344 1372.65625 C 867.84375 1372.65625 867.660156 1372.65625 867.476563 1372.65625 C 829.710938 1372.578125 799.824219 1355.089844 745.507813 1340.78125 C 719.796875 1334.007813 693.605469 1334.460938 679.628906 1354.808594 C 671.269531 1366.976563 661.296875 1391.269531 661.296875 1391.269531 C 661.296875 1391.269531 634.300781 1369.714844 615.746094 1358.101563 C 597.210938 1346.503906 577.621094 1341.515625 559.34375 1344.855469 C 534.703125 1349.363281 515.179688 1371.511719 522.011719 1393.109375 C 524.742188 1401.746094 535.757813 1419.257813 543.609375 1422.289063 C 552.40625 1425.6875 551.441406 1416.929688 550.703125 1406.625 C 548.191406 1371.636719 574.949219 1371.332031 595.855469 1389.738281 C 599.132813 1392.621094 602.398438 1395.882813 605.628906 1399.398438 C 634.957031 1431.289063 659.878906 1498.40625 725.917969 1465.855469 C 735.34375 1459.285156 741.953125 1449.664063 742.765625 1437.683594 C 743.40625 1428.148438 742.085938 1410.066406 742.085938 1410.066406 C 742.085938 1410.066406 725.339844 1416.054688 715.597656 1416.179688 C 710.976563 1416.238281 707.929688 1414.976563 705.40625 1413.121094 C 696.722656 1406.730469 697.628906 1394.808594 704.386719 1387.648438 C 717.078125 1374.203125 732.386719 1369.460938 747.546875 1373.386719 C 760.984375 1376.867188 770.65625 1383.035156 777.871094 1391.519531 C 794.988281 1411.648438 799.144531 1445.1875 799.144531 1470.179688 C 799.144531 1479.503906 799.144531 1497.6875 799.144531 1497.6875 L 835.410156 1493.003906 C 835.410156 1493.003906 834.941406 1466.597656 835.664063 1446.070313 C 835.5625 1419.867188 832.414063 1404.144531 858.726563 1401.109375 C 861.851563 1400.59375 864.996094 1400.3125 868.027344 1400.222656 Z M 869.617188 1493.613281 L 896.109375 1493.613281 L 896.109375 1418.214844 L 869.617188 1418.214844 Z M 1051.699219 607.199219 L 1104.679688 607.199219 L 1104.679688 652.03125 L 1051.699219 652.03125 L 1051.699219 607.199219 "/>
</g>
</svg>
